<svg width="32" height="33" viewBox="0 0 32 33" fill="none" xmlns="http://www.w3.org/2000/svg">
<circle cx="16" cy="16.5769" r="16" fill="white"/>
<path d="M14.5 21.5768C14.3684 21.5776 14.2379 21.5524 14.1161 21.5026C13.9943 21.4528 13.8834 21.3795 13.79 21.2868C13.6963 21.1939 13.6219 21.0833 13.5711 20.9614C13.5203 20.8396 13.4942 20.7088 13.4942 20.5768C13.4942 20.4448 13.5203 20.3141 13.5711 20.1923C13.6219 20.0704 13.6963 19.9598 13.79 19.8668L17.1 16.5768L13.92 13.2668C13.7337 13.0795 13.6292 12.826 13.6292 12.5618C13.6292 12.2976 13.7337 12.0442 13.92 11.8568C14.013 11.7631 14.1236 11.6887 14.2454 11.6379C14.3673 11.5872 14.498 11.561 14.63 11.561C14.762 11.561 14.8927 11.5872 15.0146 11.6379C15.1364 11.6887 15.247 11.7631 15.34 11.8568L19.2 15.8568C19.3832 16.0438 19.4859 16.2951 19.4859 16.5568C19.4859 16.8186 19.3832 17.0699 19.2 17.2568L15.2 21.2568C15.1102 21.3538 15.0022 21.432 14.882 21.4869C14.7619 21.5418 14.632 21.5724 14.5 21.5768V21.5768Z" fill="#3671E9"/>
</svg>
