<svg width="615" height="586" viewBox="0 0 615 586" fill="none" xmlns="http://www.w3.org/2000/svg">
<g opacity="0.3">
<path opacity="0.3" d="M614.933 556.146V547.437L612.5 546.095C611.807 550.197 606.881 552.919 602.746 553.482L574.711 569.598L562.484 573.933L523.409 554.124L524.32 553.619C520.976 552.083 519.175 548.584 517.375 545.376L514.744 546.912L513.181 547.359V556.282C513.284 557.296 513.657 558.266 514.261 559.095C514.865 559.924 515.679 560.583 516.623 561.006L555.817 583.206C558.394 584.481 561.24 585.146 564.126 585.146C567.012 585.146 569.858 584.481 572.436 583.206L611.57 561.006C612.497 560.588 613.299 559.943 613.898 559.133C614.498 558.323 614.875 557.374 614.993 556.379C615.002 556.302 615.002 556.223 614.993 556.146H614.933Z" fill="url(#paint0_linear_206_151)"/>
<path opacity="0.3" d="M602.745 553.482L574.71 569.598L564.066 573.37V585.15C566.959 585.209 569.82 584.54 572.376 583.206L611.51 561.006C612.437 560.588 613.239 559.943 613.838 559.133C614.438 558.323 614.815 557.374 614.933 556.379C614.943 556.302 614.943 556.223 614.933 556.146V556.146V547.437L612.697 546.212H612.459C611.708 550.255 606.841 552.841 602.745 553.482Z" fill="#0F054C"/>
<path opacity="0.3" d="M555.817 574.342L516.683 552.141C512.093 549.556 512.093 545.318 516.683 542.713L555.817 520.512C558.395 519.237 561.241 518.573 564.127 518.573C567.013 518.573 569.859 519.237 572.436 520.512L611.57 542.713C616.141 545.318 616.141 549.556 611.57 552.141L572.436 574.342C569.862 575.626 567.015 576.295 564.127 576.295C561.239 576.295 558.392 575.626 555.817 574.342Z" fill="url(#paint1_linear_206_151)"/>
<g opacity="0.3">
<path opacity="0.3" d="M555.817 574.342L516.683 552.141C512.093 549.556 512.093 545.318 516.683 542.713L555.817 520.512C558.395 519.237 561.241 518.573 564.127 518.573C567.013 518.573 569.859 519.237 572.436 520.512L611.57 542.713C616.141 545.318 616.141 549.556 611.57 552.141L572.436 574.342C569.862 575.626 567.015 576.295 564.127 576.295C561.239 576.295 558.392 575.626 555.817 574.342Z" fill="#0F054C"/>
</g>
</g>
<path d="M564.066 546.29C561.497 546.335 558.958 545.74 556.687 544.56L517.553 522.359C516.628 522.04 515.828 521.447 515.261 520.662C514.695 519.877 514.391 518.938 514.391 517.975C514.391 517.013 514.695 516.074 515.261 515.289C515.828 514.504 516.628 513.91 517.553 513.592L556.687 491.391C558.973 490.26 561.497 489.67 564.056 489.67C566.616 489.67 569.14 490.26 571.426 491.391L610.58 513.592C611.504 513.91 612.305 514.504 612.871 515.289C613.438 516.074 613.742 517.013 613.742 517.975C613.742 518.938 613.438 519.877 612.871 520.662C612.305 521.447 611.504 522.04 610.58 522.359L571.446 544.56C569.175 545.74 566.636 546.335 564.066 546.29ZM564.066 490.341C561.616 490.293 559.193 490.855 557.023 491.974L517.889 514.175C517.076 514.44 516.369 514.95 515.868 515.632C515.368 516.314 515.098 517.134 515.098 517.975C515.098 518.817 515.368 519.636 515.868 520.319C516.369 521.001 517.076 521.511 517.889 521.776L557.023 543.976C559.204 545.059 561.613 545.624 564.056 545.624C566.5 545.624 568.909 545.059 571.09 543.976L610.224 521.737C611.037 521.472 611.743 520.962 612.244 520.28C612.745 519.598 613.015 518.778 613.015 517.936C613.015 517.095 612.745 516.275 612.244 515.593C611.743 514.911 611.037 514.401 610.224 514.136L571.09 491.935C568.923 490.832 566.507 490.283 564.066 490.341V490.341Z" fill="#42E8E0"/>
<path opacity="0.4" d="M614.933 509.451V496.29L612.5 494.949C611.807 499.07 606.881 501.772 602.746 502.336L574.711 518.452L562.484 522.787L523.409 502.977L524.32 502.472C520.976 500.936 519.175 497.437 517.375 494.229L514.744 495.765L513.181 496.212V509.587C513.284 510.601 513.657 511.571 514.261 512.4C514.865 513.229 515.679 513.888 516.623 514.311L555.817 536.511C558.392 537.795 561.239 538.465 564.126 538.465C567.014 538.465 569.861 537.795 572.436 536.511L611.57 514.311C612.497 513.893 613.299 513.248 613.898 512.438C614.498 511.628 614.875 510.679 614.993 509.684C615.002 509.607 615.002 509.528 614.993 509.451H614.933Z" fill="#42E8E0"/>
<path d="M614.933 497.748V489.039L612.5 487.697C611.807 491.819 606.881 494.521 602.746 495.085L574.711 511.2L562.484 515.535L523.409 495.726L524.32 495.221C520.976 493.685 519.175 490.186 517.375 486.978L514.744 488.533L513.181 488.961V497.884C513.284 498.898 513.657 499.868 514.261 500.697C514.865 501.526 515.679 502.185 516.623 502.608L555.817 524.808C558.392 526.092 561.239 526.762 564.126 526.762C567.014 526.762 569.861 526.092 572.436 524.808L611.57 502.608C612.497 502.19 613.299 501.545 613.898 500.735C614.498 499.925 614.875 498.976 614.993 497.981C615.002 497.904 615.002 497.825 614.993 497.748H614.933Z" fill="url(#paint2_linear_206_151)"/>
<path opacity="0.3" d="M602.745 495.084L574.71 511.2L564.066 514.971V526.752C566.959 526.81 569.82 526.141 572.376 524.808L611.51 502.607C612.437 502.19 613.239 501.545 613.838 500.735C614.438 499.924 614.815 498.976 614.933 497.981C614.943 497.903 614.943 497.825 614.933 497.747V497.747V489.038L612.697 487.813H612.46C611.708 491.857 606.841 494.52 602.745 495.084Z" fill="#0F054C"/>
<path d="M555.817 515.904L516.683 493.704C512.093 491.099 512.093 486.861 516.683 484.275L555.817 462.133C558.392 460.849 561.239 460.18 564.127 460.18C567.015 460.18 569.862 460.849 572.436 462.133L611.57 484.334C616.141 486.919 616.141 491.157 611.57 493.762L572.377 515.904C569.807 517.17 566.972 517.829 564.097 517.829C561.222 517.829 558.387 517.17 555.817 515.904V515.904Z" fill="url(#paint3_linear_206_151)"/>
<path d="M611.51 493.763L572.375 515.905C569.798 517.18 566.952 517.844 564.066 517.844C561.18 517.844 558.334 517.18 555.756 515.905L516.622 493.705C515.768 493.309 515.018 492.727 514.428 492.002C513.838 491.278 513.425 490.43 513.219 489.525C512.942 491.469 514.09 493.413 516.622 494.774L555.816 517.033C558.391 518.317 561.238 518.986 564.125 518.986C567.013 518.986 569.86 518.317 572.435 517.033L611.569 494.832C612.614 494.405 613.499 493.672 614.105 492.733C614.71 491.794 615.006 490.694 614.952 489.583C614.741 490.492 614.321 491.341 613.724 492.066C613.128 492.79 612.37 493.371 611.51 493.763V493.763Z" fill="white"/>
<path d="M544.414 488L455.398 435.683L427.097 451.718H426.768L371.647 419.81L371.976 419L427.097 450.746L455.398 434.711L456.056 435.035L544.743 487.19L544.414 488Z" fill="url(#paint4_linear_206_151)"/>
<g opacity="0.3">
<path opacity="0.3" d="M101.821 555.204V546.494L99.3662 545.153C98.6734 549.274 93.7447 551.977 89.6276 552.54L61.5596 568.656L49.3268 572.991L10.2335 553.182L11.1441 552.676C7.79891 551.141 5.99763 547.641 4.19637 544.434L1.56379 545.989L3.8147e-05 546.417V555.34C0.103651 556.354 0.476156 557.324 1.08047 558.153C1.68479 558.982 2.49979 559.641 3.44419 560.064L42.5969 582.264C45.1731 583.548 48.0214 584.218 50.9104 584.218C53.7994 584.218 56.6477 583.548 59.2239 582.264L98.3765 560.064C99.3076 559.649 100.114 559.005 100.717 558.194C101.321 557.384 101.701 556.434 101.821 555.437C101.821 555.437 101.821 555.281 101.821 555.204V555.204Z" fill="url(#paint5_linear_206_151)"/>
<path opacity="0.3" d="M89.627 552.578L61.5591 568.694L50.9099 572.466V584.246C53.8044 584.305 56.6662 583.636 59.2233 582.302L98.376 560.102C99.3071 559.687 100.113 559.043 100.717 558.233C101.32 557.422 101.7 556.472 101.82 555.475C101.82 555.475 101.82 555.319 101.82 555.242V546.533L99.5636 545.308H99.3261C98.574 549.313 93.7046 551.976 89.627 552.578Z" fill="#0F054C"/>
<path opacity="0.3" d="M42.5968 573.419L3.44417 551.218C-1.14806 548.613 -1.14806 544.375 3.44417 541.79L42.5968 519.531C45.173 518.247 48.0213 517.577 50.9104 517.577C53.7994 517.577 56.6476 518.247 59.2238 519.531L98.3765 541.731C102.949 544.317 102.949 548.555 98.3765 551.16L59.2238 573.419C56.6449 574.694 53.7977 575.358 50.9104 575.358C48.023 575.358 45.1758 574.694 42.5968 573.419V573.419Z" fill="url(#paint6_linear_206_151)"/>
<g opacity="0.3">
<path opacity="0.3" d="M42.5972 573.419L3.44458 551.218C-1.14764 548.613 -1.14764 544.375 3.44458 541.79L42.5972 519.531C45.1734 518.247 48.0218 517.577 50.9108 517.577C53.7998 517.577 56.6481 518.247 59.2243 519.531L98.3769 541.731C102.949 544.317 102.949 548.555 98.3769 551.16L59.2243 573.419C56.6453 574.694 53.7981 575.358 50.9108 575.358C48.0234 575.358 45.1762 574.694 42.5972 573.419V573.419Z" fill="#0F054C"/>
</g>
</g>
<path d="M50.9104 541.11C48.3389 541.165 45.7962 540.569 43.5271 539.379L4.37448 517.179C3.45663 516.856 2.6628 516.262 2.10155 515.479C1.54031 514.696 1.23907 513.762 1.23907 512.805C1.23907 511.847 1.54031 510.913 2.10155 510.13C2.6628 509.347 3.45663 508.754 4.37448 508.431L43.5271 486.23C45.815 485.09 48.3446 484.495 50.9104 484.495C53.4761 484.495 56.0057 485.09 58.2935 486.23L97.4462 508.431C98.364 508.754 99.1579 509.347 99.7191 510.13C100.28 510.913 100.582 511.847 100.582 512.805C100.582 513.762 100.28 514.696 99.7191 515.479C99.1579 516.262 98.364 516.856 97.4462 517.179L58.2935 539.379C56.0244 540.569 53.4818 541.165 50.9104 541.11ZM43.8637 538.796C46.0454 539.879 48.4558 540.444 50.9004 540.444C53.3451 540.444 55.7555 539.879 57.9372 538.796L97.0899 516.596C97.9645 516.4 98.7455 515.918 99.3049 515.229C99.8644 514.541 100.169 513.686 100.169 512.805C100.169 511.924 99.8644 511.069 99.3049 510.38C98.7455 509.691 97.9645 509.21 97.0899 509.014L57.9372 486.814C55.7583 485.721 53.3468 485.152 50.9004 485.152C48.4541 485.152 46.0426 485.721 43.8637 486.814L4.711 509.014C3.83637 509.21 3.05537 509.691 2.49595 510.38C1.93653 511.069 1.63183 511.924 1.63183 512.805C1.63183 513.686 1.93653 514.541 2.49595 515.229C3.05537 515.918 3.83637 516.4 4.711 516.596L43.8637 538.796Z" fill="#42E8E0"/>
<path opacity="0.4" d="M101.821 504.29V491.11L99.3662 489.768C98.6734 493.89 93.7447 496.592 89.6275 497.155L61.5596 513.271L49.3268 517.587L10.2335 497.778L11.1441 497.272C7.79887 495.736 5.99759 492.237 4.19633 489.03L1.56375 490.585L0 491.012V504.407C0.0950687 505.421 0.464493 506.392 1.07004 507.219C1.6756 508.046 2.49524 508.7 3.44415 509.111L42.5968 531.312C45.173 532.596 48.0213 533.265 50.9103 533.265C53.7994 533.265 56.6476 532.596 59.2238 531.312L98.3765 509.111C99.3075 508.696 100.114 508.052 100.717 507.242C101.321 506.431 101.701 505.482 101.821 504.484C101.821 504.484 101.821 504.329 101.821 504.251V504.29Z" fill="#42E8E0"/>
<path d="M101.821 492.568V483.859L99.3662 482.517C98.6734 486.638 93.7447 489.341 89.6275 489.904L61.5596 506.02L49.3268 510.355L10.2335 490.546L11.1441 490.04C7.79887 488.505 5.99759 485.006 4.19633 481.817L1.56375 483.353L0 483.781V492.723C0.106917 493.734 0.480956 494.7 1.08509 495.525C1.68921 496.35 2.50244 497.006 3.44415 497.428L42.5968 519.628C45.173 520.912 48.0213 521.582 50.9103 521.582C53.7994 521.582 56.6476 520.912 59.2238 519.628L98.3765 497.428C99.3075 497.013 100.114 496.369 100.717 495.559C101.321 494.748 101.701 493.798 101.821 492.801C101.821 492.801 101.821 492.645 101.821 492.568V492.568Z" fill="url(#paint7_linear_206_151)"/>
<path d="M42.5968 510.783L3.44417 488.582C-1.14806 485.977 -1.14806 481.739 3.44417 479.154L42.5968 456.953C45.173 455.669 48.0213 455 50.9104 455C53.7994 455 56.6476 455.669 59.2238 456.953L98.3765 479.154C102.949 481.759 102.949 485.977 98.3765 488.582L59.2238 510.783C56.6476 512.067 53.7994 512.736 50.9104 512.736C48.0213 512.736 45.173 512.067 42.5968 510.783Z" fill="url(#paint8_linear_206_151)"/>
<path d="M50.9107 506.739C48.5882 506.79 46.2913 506.255 44.2401 505.184L13.6583 487.843C12.822 487.552 12.0982 487.013 11.5864 486.301C11.0745 485.589 10.7998 484.739 10.7998 483.868C10.7998 482.996 11.0745 482.146 11.5864 481.434C12.0982 480.723 12.822 480.184 13.6583 479.892L44.2401 462.552C46.306 461.518 48.5919 460.978 50.9107 460.978C53.2295 460.978 55.5154 461.518 57.5813 462.552L88.1632 479.892C88.9994 480.184 89.7231 480.723 90.235 481.434C90.7469 482.146 91.0217 482.996 91.0217 483.868C91.0217 484.739 90.7469 485.589 90.235 486.301C89.7231 487.013 88.9994 487.552 88.1632 487.843L57.5813 505.184C55.5301 506.255 53.2332 506.79 50.9107 506.739V506.739ZM44.5766 504.601C46.5359 505.579 48.7028 506.089 50.9008 506.089C53.0988 506.089 55.2657 505.579 57.225 504.601L87.8266 487.26C88.5609 487.032 89.2021 486.581 89.6573 485.971C90.1124 485.361 90.3578 484.624 90.3578 483.868C90.3578 483.112 90.1124 482.375 89.6573 481.765C89.2021 481.155 88.5609 480.703 87.8266 480.476L57.225 463.154C55.2657 462.176 53.0988 461.666 50.9008 461.666C48.7028 461.666 46.5359 462.176 44.5766 463.154L13.9948 480.495C13.3075 480.789 12.7122 481.257 12.2704 481.851C11.8285 482.446 11.556 483.145 11.4809 483.878C11.5586 484.612 11.8319 485.312 12.2732 485.91C12.7145 486.507 13.3083 486.979 13.9948 487.28L44.5766 504.601Z" fill="#5351AF"/>
<path d="M98.3767 488.583L59.224 510.783C56.6478 512.067 53.7995 512.737 50.9105 512.737C48.0215 512.737 45.1732 512.067 42.597 510.783L3.44432 488.583C2.58996 488.187 1.83904 487.605 1.24896 486.88C0.658882 486.156 0.245262 485.309 0.0397413 484.403C-0.00551877 485.517 0.296116 486.618 0.904403 487.559C1.51269 488.501 2.39872 489.237 3.44432 489.671L42.597 511.872C45.1759 513.147 48.0232 513.811 50.9105 513.811C53.7979 513.811 56.645 513.147 59.224 511.872L98.3767 489.671C99.422 489.239 100.307 488.502 100.912 487.56C101.518 486.618 101.814 485.516 101.761 484.403C101.559 485.307 101.149 486.154 100.563 486.878C99.976 487.603 99.2282 488.186 98.3767 488.583V488.583Z" fill="white"/>
<path d="M55.7058 503.441L144.422 453.308L172.814 468.352L173.143 468.35L228.081 437.768L227.747 437.002L172.808 467.43L144.417 452.386L143.76 452.697L55.3721 502.675L55.7058 503.441Z" fill="url(#paint9_linear_206_151)"/>
<g opacity="0.3">
<path opacity="0.3" d="M613.883 202.896V194.187L611.431 192.845C610.739 196.947 605.815 199.669 601.702 200.232L573.661 216.329L561.44 220.683L522.384 200.874L523.294 200.349C519.952 198.833 518.152 195.314 516.353 192.126L513.723 193.662L512.161 194.089V203.032C512.254 204.047 512.622 205.019 513.227 205.846C513.832 206.674 514.652 207.326 515.601 207.736L554.716 229.937C557.29 231.221 560.136 231.89 563.022 231.89C565.908 231.89 568.754 231.221 571.327 229.937L610.442 207.736C611.373 207.322 612.178 206.678 612.781 205.867C613.384 205.057 613.763 204.107 613.883 203.11V202.896V202.896Z" fill="url(#paint10_linear_206_151)"/>
<path opacity="0.3" d="M601.701 200.232L573.66 216.329L563.021 220.119V231.9C565.913 231.959 568.772 231.289 571.327 229.956L610.442 207.756C611.372 207.341 612.177 206.697 612.78 205.886C613.383 205.076 613.763 204.126 613.883 203.129V202.915V194.206L611.648 192.981H611.411C610.62 197.005 605.775 199.669 601.701 200.232Z" fill="#0F054C"/>
<path opacity="0.3" d="M554.716 221.091L515.7 198.891C511.112 196.286 511.112 192.067 515.7 189.462L554.716 167.184C557.29 165.9 560.135 165.231 563.022 165.231C565.908 165.231 568.753 165.9 571.327 167.184L610.442 189.385C615.03 191.99 615.03 196.208 610.442 198.813L571.327 221.014C568.76 222.31 565.917 222.992 563.031 223.006C560.145 223.019 557.296 222.363 554.716 221.091V221.091Z" fill="url(#paint11_linear_206_151)"/>
<g opacity="0.3">
<path opacity="0.3" d="M554.716 221.091L515.7 198.891C511.112 196.286 511.112 192.067 515.7 189.462L554.716 167.184C557.29 165.9 560.135 165.231 563.022 165.231C565.908 165.231 568.753 165.9 571.327 167.184L610.442 189.385C615.03 191.99 615.03 196.208 610.442 198.813L571.327 221.014C568.76 222.31 565.917 222.992 563.031 223.006C560.145 223.019 557.296 222.363 554.716 221.091V221.091Z" fill="#0F054C"/>
</g>
</g>
<path d="M563.023 194.498C560.455 194.543 557.917 193.948 555.647 192.768L516.532 170.567C515.608 170.248 514.808 169.655 514.242 168.87C513.676 168.085 513.372 167.146 513.372 166.183C513.372 165.221 513.676 164.282 514.242 163.497C514.808 162.712 515.608 162.118 516.532 161.8L555.647 139.599C557.935 138.467 560.461 137.878 563.023 137.878C565.585 137.878 568.111 138.467 570.399 139.599L609.514 161.8C610.438 162.118 611.238 162.712 611.804 163.497C612.37 164.282 612.674 165.221 612.674 166.183C612.674 167.146 612.37 168.085 611.804 168.87C611.238 169.655 610.438 170.248 609.514 170.567L570.399 192.768C568.129 193.948 565.591 194.543 563.023 194.498ZM563.023 138.53C560.578 138.488 558.163 139.057 556.003 140.182L516.868 162.383C516.056 162.648 515.349 163.158 514.849 163.84C514.348 164.522 514.078 165.342 514.078 166.183C514.078 167.025 514.348 167.844 514.849 168.527C515.349 169.209 516.056 169.719 516.868 169.984L556.003 192.184C558.182 193.267 560.59 193.832 563.033 193.832C565.475 193.832 567.883 193.267 570.063 192.184L609.178 169.984C609.99 169.719 610.696 169.209 611.197 168.527C611.698 167.844 611.968 167.025 611.968 166.183C611.968 165.342 611.698 164.522 611.197 163.84C610.696 163.158 609.99 162.648 609.178 162.383L570.063 140.182C567.895 139.057 565.474 138.488 563.023 138.53V138.53Z" fill="#42E8E0"/>
<path opacity="0.4" d="M613.883 157.659V144.498L611.431 143.156C610.739 147.258 605.815 149.98 601.702 150.544L573.661 166.659L561.44 171.072L522.384 151.263L523.294 150.757C519.952 149.222 518.152 145.722 516.353 142.515L513.723 144.051L512.161 144.498V157.873C512.287 158.883 512.68 159.844 513.301 160.659C513.922 161.474 514.749 162.115 515.7 162.519L554.716 184.68C557.29 185.964 560.136 186.634 563.022 186.634C565.908 186.634 568.754 185.964 571.327 184.68L610.442 162.48C611.373 162.065 612.178 161.421 612.781 160.611C613.384 159.8 613.763 158.85 613.883 157.853V157.62V157.659Z" fill="#42E8E0"/>
<path d="M613.883 145.956V137.247L611.431 135.905C610.739 140.007 605.815 142.729 601.702 143.292L573.661 159.408L561.44 163.743L522.384 143.856L523.294 143.351C519.952 141.815 518.152 138.316 516.353 135.108L513.723 136.644L512.161 137.091V146.014C512.264 147.028 512.636 147.998 513.24 148.827C513.844 149.656 514.658 150.315 515.601 150.738L554.716 173.016C557.293 174.291 560.137 174.956 563.022 174.956C565.907 174.956 568.751 174.291 571.327 173.016L610.442 150.816C611.373 150.401 612.178 149.757 612.781 148.947C613.384 148.136 613.763 147.186 613.883 146.189V145.956Z" fill="url(#paint12_linear_206_151)"/>
<path opacity="0.3" d="M601.701 143.293L573.66 159.409L563.021 163.18V174.961C565.913 175.019 568.772 174.35 571.327 173.017L610.442 150.816C611.372 150.402 612.177 149.758 612.78 148.947C613.383 148.137 613.763 147.187 613.883 146.19V145.956V137.247L611.648 136.022H611.411C610.62 140.066 605.775 142.729 601.701 143.293Z" fill="#0F054C"/>
<path d="M523.294 143.428L560.372 122.472C561.197 122.065 562.108 121.853 563.032 121.853C563.955 121.853 564.866 122.065 565.691 122.472L602.097 143.137L601.702 143.37C605.815 142.806 610.739 140.084 611.431 135.983L570.556 113.627L558.691 110.536L549.001 116.134L516.373 135.263C518.152 138.393 519.952 141.912 523.294 143.428Z" fill="url(#paint13_linear_206_151)"/>
<path opacity="0.3" d="M563.022 111.605L558.671 110.458L548.982 116.057L516.353 135.186C518.152 138.393 519.952 141.893 523.294 143.428L560.372 122.472C561.182 122.033 562.096 121.811 563.022 121.83V111.605Z" fill="#0F054C"/>
<path d="M554.716 164.152L515.7 141.912C511.112 139.327 511.112 135.089 515.7 132.484L554.815 110.283C557.391 109.008 560.236 108.344 563.121 108.344C566.005 108.344 568.85 109.008 571.426 110.283L610.541 132.484C615.129 135.089 615.129 139.327 610.541 141.912L571.426 164.113C568.843 165.419 565.981 166.104 563.076 166.11C560.171 166.117 557.306 165.446 554.716 164.152ZM565.691 113.608C564.866 113.201 563.955 112.989 563.032 112.989C562.108 112.989 561.197 113.201 560.372 113.608L521.257 135.808C520.931 135.912 520.647 136.115 520.445 136.387C520.244 136.66 520.136 136.988 520.136 137.324C520.136 137.661 520.244 137.989 520.445 138.262C520.647 138.534 520.931 138.737 521.257 138.841L560.372 161.041C561.197 161.448 562.108 161.66 563.032 161.66C563.955 161.66 564.866 161.448 565.691 161.041L604.806 138.841C605.123 138.728 605.396 138.521 605.59 138.25C605.783 137.979 605.887 137.656 605.887 137.324C605.887 136.993 605.783 136.67 605.59 136.399C605.396 136.128 605.123 135.921 604.806 135.808L565.691 113.608Z" fill="url(#paint14_linear_206_151)"/>
<path d="M604.806 135.73L565.691 113.53C564.865 113.123 563.954 112.911 563.031 112.911C562.107 112.911 561.197 113.123 560.371 113.53L521.256 135.73C520.267 136.294 519.951 137.071 520.267 137.791C520.49 137.377 520.835 137.038 521.256 136.819L560.371 114.696C561.197 114.289 562.107 114.077 563.031 114.077C563.954 114.077 564.865 114.289 565.691 114.696L604.806 136.897C605.222 137.116 605.56 137.455 605.775 137.869C606.091 137.071 605.775 136.294 604.806 135.73Z" fill="white"/>
<path d="M610.444 141.912L571.329 164.112C568.755 165.397 565.909 166.066 563.023 166.066C560.137 166.066 557.291 165.397 554.718 164.112L515.701 141.912C514.848 141.522 514.097 140.944 513.507 140.222C512.917 139.501 512.504 138.655 512.3 137.752C512.256 138.863 512.558 139.961 513.166 140.899C513.774 141.837 514.658 142.57 515.701 143.001L554.718 165.24C557.291 166.524 560.137 167.193 563.023 167.193C565.909 167.193 568.755 166.524 571.329 165.24L610.444 143.039C611.487 142.609 612.371 141.876 612.979 140.938C613.587 140 613.889 138.902 613.845 137.791C613.635 138.687 613.22 139.525 612.631 140.239C612.041 140.953 611.293 141.526 610.444 141.912Z" fill="white"/>
<path d="M555.823 163.53L516.708 141.329C512.753 139.074 512.753 135.497 516.708 133.164L555.823 110.964C558.052 109.844 560.519 109.261 563.021 109.261C565.524 109.261 567.991 109.844 570.22 110.964L609.335 133.164C613.29 135.419 613.29 138.996 609.335 141.329L570.22 163.53C567.991 164.649 565.524 165.233 563.021 165.233C560.519 165.233 558.052 164.649 555.823 163.53V163.53ZM566.779 112.986C565.616 112.4 564.328 112.095 563.021 112.095C561.715 112.095 560.427 112.4 559.264 112.986L520.149 135.108C519.693 135.258 519.297 135.546 519.016 135.929C518.735 136.313 518.584 136.774 518.584 137.247C518.584 137.72 518.735 138.18 519.016 138.564C519.297 138.948 519.693 139.235 520.149 139.385L559.205 161.586C560.371 162.16 561.658 162.46 562.962 162.46C564.267 162.46 565.553 162.16 566.719 161.586L605.854 139.385C606.31 139.235 606.707 138.948 606.988 138.564C607.269 138.18 607.42 137.72 607.42 137.247C607.42 136.774 607.269 136.313 606.988 135.929C606.707 135.546 606.31 135.258 605.854 135.108L566.779 112.986Z" fill="url(#paint15_linear_206_151)"/>
<path opacity="0.4" d="M565.692 113.53C564.867 113.123 563.956 112.911 563.032 112.911C562.109 112.911 561.198 113.123 560.373 113.53L521.258 135.73C520.932 135.834 520.648 136.037 520.446 136.309C520.245 136.582 520.136 136.91 520.136 137.246C520.136 137.583 520.245 137.911 520.446 138.184C520.648 138.456 520.932 138.659 521.258 138.763L560.373 160.963C561.198 161.37 562.109 161.582 563.032 161.582C563.956 161.582 564.867 161.37 565.692 160.963L604.807 138.763C605.124 138.65 605.397 138.443 605.591 138.172C605.784 137.901 605.887 137.578 605.887 137.246C605.887 136.915 605.784 136.592 605.591 136.321C605.397 136.05 605.124 135.843 604.807 135.73L565.692 113.53Z" fill="#42E8E0"/>
<path d="M536.184 181.78L445.543 231.333L445.533 263.421L445.368 263.701L389.671 294.629L389.121 293.944L444.676 262.935L444.687 230.847L445.301 230.449L535.635 181.095L536.184 181.78Z" fill="url(#paint16_linear_206_151)"/>
<path opacity="0.5" d="M479.602 322.296L494.939 331.015V365.83L479.602 357.126V322.296Z" fill="#758EF5"/>
<path opacity="0.2" d="M464.265 331.015L479.602 339.719V357.126L464.265 348.423V331.015Z" fill="#758EF5"/>
<path opacity="0.5" d="M448.927 270.059L464.264 278.778V348.423L448.927 339.719V270.059Z" fill="#758EF5"/>
<path opacity="0.2" d="M433.574 243.948L448.927 252.652V339.719L433.574 331.015V243.948Z" fill="#758EF5"/>
<path opacity="0.5" d="M418.238 252.652L433.574 261.355V331.015L418.238 322.296V252.652Z" fill="#758EF5"/>
<path opacity="0.2" d="M402.9 191.711L418.237 200.415V322.296L402.9 313.592V191.711Z" fill="#758EF5"/>
<path opacity="0.5" d="M387.564 200.415L402.901 209.119V313.593L387.564 304.889V200.415Z" fill="#758EF5"/>
<path opacity="0.2" d="M372.227 209.118L387.564 217.822V304.888L372.227 296.185V209.118Z" fill="#758EF5"/>
<path opacity="0.5" d="M356.875 165.585L372.228 174.304V296.186L356.875 287.482V165.585Z" fill="#758EF5"/>
<path opacity="0.2" d="M341.538 122.067L356.874 130.77V287.482L341.538 278.762V122.067Z" fill="#758EF5"/>
<path opacity="0.5" d="M326.201 130.771L341.538 139.474V278.763L326.201 270.059V130.771Z" fill="#758EF5"/>
<path opacity="0.2" d="M310.864 87.2368L326.201 95.9404V270.059L310.864 261.355V87.2368Z" fill="#758EF5"/>
<path opacity="0.5" d="M295.51 78.5334L310.863 87.237V261.355L295.51 252.652V78.5334Z" fill="#758EF5"/>
<path opacity="0.2" d="M280.174 35L295.511 43.7036V252.652L280.174 243.948V35Z" fill="#758EF5"/>
<path opacity="0.4" d="M295.241 495C372.845 495 435.756 459.296 435.756 415.254C435.756 371.211 372.845 335.507 295.241 335.507C217.637 335.507 154.726 371.211 154.726 415.254C154.726 459.296 217.637 495 295.241 495Z" fill="#0F054C"/>
<path d="M295.242 463.294C383.569 463.294 455.172 422.657 455.172 372.528C455.172 322.399 383.569 281.762 295.242 281.762C206.914 281.762 135.311 322.399 135.311 372.528C135.311 422.657 206.914 463.294 295.242 463.294Z" fill="url(#paint17_linear_206_151)"/>
<path opacity="0.48" d="M455.189 342.641H451.236C444.816 326.477 430.523 311.106 408.34 298.533C345.885 263.081 244.614 263.081 182.239 298.533C161.289 310.422 147.454 324.783 140.481 339.968H135.469V360.095C134.22 384.201 149.81 408.54 182.239 426.926C244.693 462.362 345.964 462.362 408.419 426.926C439.646 409.192 455.268 385.972 455.268 362.737L455.189 342.641Z" fill="url(#paint18_linear_206_151)"/>
<path opacity="0.48" d="M451.236 334.838C451.015 334.279 450.778 333.719 450.525 333.16V319.933H442.145V318.985C439.955 316.098 437.578 313.351 435.03 310.764V319.933H430.286V306.21C428.062 304.22 425.68 302.272 423.14 300.366V319.965H418.396V296.884C416.104 295.33 413.653 293.776 411.218 292.315V319.887H406.475V289.58C404.134 288.285 401.736 287.041 399.28 285.85V319.887H394.537V283.689C392.165 282.653 389.762 281.617 387.327 280.581V319.887H382.584V288.103H375.358V319.933H370.615V296.884H363.357V319.98H358.614V305.619H351.341V319.98H346.692V314.369H339.466V319.98H251.145V314.369H243.84V319.98H239.192V305.619H231.95V319.98H227.207V296.884H219.949V319.98H215.206V288.103H207.98V319.933H203.237V280.596C200.802 281.57 198.398 282.606 196.027 283.705V319.98H191.283V285.865C188.833 287.062 186.429 288.29 184.089 289.58V319.933H179.346V292.315C176.848 293.786 174.455 295.304 172.168 296.869V319.933H167.424V300.288C164.879 302.184 162.507 304.143 160.278 306.132V319.933H155.534V310.608C152.995 313.199 150.619 315.939 148.419 318.814V319.856H140.039V332.056H136.482V365.798C137.869 372.098 140.265 378.142 143.581 383.703V362.674H148.419V390.914C150.61 393.791 152.987 396.527 155.534 399.105V362.674H160.278V403.674C162.507 405.648 164.894 407.607 167.424 409.503V362.674H172.168V412.922C174.466 414.476 176.858 415.999 179.346 417.491V362.674H184.089V420.18C186.429 421.455 188.827 422.693 191.283 423.895V362.674H196.027V426.133C198.398 427.169 200.802 428.205 203.237 429.241V362.721H207.98V431.106C210.352 431.992 212.723 432.831 215.206 433.64V362.674H219.949V435.007C222.353 435.738 224.693 436.422 227.207 437.074V362.674H231.95V438.318C234.353 438.893 236.772 439.452 239.223 439.965V362.721H243.872V440.913C246.291 441.38 248.726 441.799 251.176 442.203V362.674H255.809V442.856C258.228 443.214 260.679 443.524 263.13 443.82V362.674H267.731V444.317C270.166 444.55 272.616 444.752 275.083 444.939V362.674H279.652V445.234C282.119 445.358 284.57 445.467 287.036 445.545V362.674H291.59V445.638C294.078 445.638 296.56 445.638 299.037 445.638V362.674H303.591V445.545C306.057 445.545 308.508 445.358 310.975 445.234V362.674H315.544V444.939C318.011 444.752 320.461 444.55 322.896 444.301V362.674H327.497V443.804C329.948 443.524 332.399 443.198 334.818 442.856V362.674H339.466V442.141C341.917 441.753 344.352 441.317 346.771 440.851V362.674H351.42V439.872C353.87 439.344 356.29 438.8 358.693 438.209V362.674H363.436V437.059C365.871 436.406 368.29 435.707 370.694 434.992V362.674H375.437V433.5C377.872 432.707 380.291 431.945 382.663 430.982V362.674H387.406V429.163C389.841 428.184 392.244 427.174 394.616 426.055V362.674H399.359V423.895C401.815 422.693 404.213 421.455 406.554 420.18V362.674H411.297V417.46C413.795 415.968 416.188 414.44 418.475 412.875V362.674H423.219V409.456C425.748 407.539 428.131 405.591 430.365 403.612V362.674H435.109V399.058C437.661 396.474 440.038 393.728 442.224 390.837V362.674H446.983V383.641C450.325 378.031 452.723 371.927 454.082 365.565V334.854L451.236 334.838Z" fill="url(#paint19_linear_206_151)"/>
<path d="M295.242 425.636C383.569 425.636 455.172 384.998 455.172 334.87C455.172 284.741 383.569 244.104 295.242 244.104C206.914 244.104 135.311 284.741 135.311 334.87C135.311 384.998 206.914 425.636 295.242 425.636Z" fill="url(#paint20_linear_206_151)"/>
<path opacity="0.3" d="M295.305 244.041C259.066 244.041 222.826 250.989 193.323 264.868L145.604 366.824C153.383 378.558 165.542 389.547 182.16 398.981C192.884 404.983 204.206 409.889 215.949 413.621L295.305 244.041Z" fill="#91A2FA"/>
<path opacity="0.3" d="M340.113 247.74L258.021 423.149C277.859 425.797 297.93 426.318 317.883 424.703L393.445 263.236C376.412 255.858 358.49 250.65 340.113 247.74V247.74Z" fill="#91A2FA"/>
<g opacity="0.05">
<path opacity="0.05" d="M295.242 415.254C373.466 415.254 436.879 379.265 436.879 334.87C436.879 290.475 373.466 254.486 295.242 254.486C217.018 254.486 153.605 290.475 153.605 334.87C153.605 379.265 217.018 415.254 295.242 415.254Z" fill="url(#paint21_linear_206_151)"/>
<g opacity="0.05">
<path opacity="0.05" d="M42.2464 334.528L40.7285 333.658L287.479 193.623L288.997 194.493L42.2464 334.528Z" fill="#91A2FA"/>
<path opacity="0.05" d="M46.5941 336.983L45.0763 336.128L291.827 196.094L293.344 196.949L46.5941 336.983Z" fill="#91A2FA"/>
<path opacity="0.05" d="M50.9429 339.455L49.425 338.6L296.175 198.566L297.693 199.42L50.9429 339.455Z" fill="#91A2FA"/>
<path opacity="0.05" d="M55.2907 341.926L53.7728 341.071L300.523 201.037L302.041 201.891L55.2907 341.926Z" fill="#91A2FA"/>
<path opacity="0.05" d="M59.639 344.397L58.1211 343.527L304.871 203.492L306.389 204.363L59.639 344.397Z" fill="#91A2FA"/>
<path opacity="0.05" d="M63.9868 346.853L62.4689 345.998L309.219 205.963L310.737 206.818L63.9868 346.853Z" fill="#91A2FA"/>
<path opacity="0.05" d="M68.3351 349.324L66.8172 348.469L313.567 208.434L315.07 209.289L68.3351 349.324Z" fill="#91A2FA"/>
<path opacity="0.05" d="M72.6833 351.795L71.1655 350.94L317.916 210.906L319.418 211.761L72.6833 351.795Z" fill="#91A2FA"/>
<path opacity="0.05" d="M77.0311 354.267L75.5132 353.396L322.264 213.362L323.766 214.217L77.0311 354.267Z" fill="#91A2FA"/>
<path opacity="0.05" d="M81.3794 356.722L79.8615 355.867L326.612 215.833L328.114 216.688L81.3794 356.722Z" fill="#91A2FA"/>
<path opacity="0.05" d="M85.7114 359.193L84.2093 358.338L330.96 218.304L332.462 219.159L85.7114 359.193Z" fill="#91A2FA"/>
<path opacity="0.05" d="M90.0597 361.664L88.5576 360.81L335.308 220.775L336.81 221.63L90.0597 361.664Z" fill="#91A2FA"/>
<path opacity="0.05" d="M94.4079 364.12L92.9059 363.265L339.656 223.23L341.158 224.085L94.4079 364.12Z" fill="#91A2FA"/>
<path opacity="0.05" d="M98.7562 366.591L97.2542 365.736L344.004 225.702L345.507 226.557L98.7562 366.591Z" fill="#91A2FA"/>
<path opacity="0.05" d="M103.104 369.062L101.602 368.207L348.352 228.173L349.854 229.028L103.104 369.062Z" fill="#91A2FA"/>
<path opacity="0.05" d="M107.453 371.533L105.935 370.679L352.685 230.629L354.203 231.499L107.453 371.533Z" fill="#91A2FA"/>
<path opacity="0.05" d="M111.8 374.005L110.283 373.135L357.033 233.1L358.551 233.955L111.8 374.005Z" fill="#91A2FA"/>
<path opacity="0.05" d="M116.149 376.461L114.631 375.606L361.381 235.572L362.899 236.426L116.149 376.461Z" fill="#91A2FA"/>
<path opacity="0.05" d="M120.497 378.932L118.979 378.077L365.729 238.042L367.247 238.897L120.497 378.932Z" fill="#91A2FA"/>
<path opacity="0.05" d="M124.845 381.403L123.327 380.533L370.077 240.498L371.595 241.368L124.845 381.403Z" fill="#91A2FA"/>
<path opacity="0.05" d="M129.193 383.858L127.675 383.003L374.426 242.969L375.943 243.824L129.193 383.858Z" fill="#91A2FA"/>
<path opacity="0.05" d="M133.541 386.33L132.023 385.475L378.773 245.44L380.291 246.295L133.541 386.33Z" fill="#91A2FA"/>
<path opacity="0.05" d="M137.889 388.801L136.371 387.946L383.122 247.912L384.639 248.767L137.889 388.801Z" fill="#91A2FA"/>
<path opacity="0.05" d="M142.237 391.272L140.719 390.417L387.469 250.367L388.987 251.238L142.237 391.272Z" fill="#91A2FA"/>
<path opacity="0.05" d="M146.585 393.727L145.067 392.873L391.818 252.838L393.336 253.693L146.585 393.727Z" fill="#91A2FA"/>
<path opacity="0.05" d="M150.934 396.198L149.416 395.344L396.166 255.309L397.668 256.164L150.934 396.198Z" fill="#91A2FA"/>
<path opacity="0.05" d="M155.282 398.67L153.764 397.815L400.514 257.781L402.016 258.635L155.282 398.67Z" fill="#91A2FA"/>
<path opacity="0.05" d="M159.614 401.141L158.112 400.271L404.862 260.236L406.364 261.107L159.614 401.141Z" fill="#91A2FA"/>
<path opacity="0.05" d="M163.962 403.597L162.459 402.742L409.21 262.708L410.712 263.562L163.962 403.597Z" fill="#91A2FA"/>
<path opacity="0.05" d="M168.31 406.068L166.808 405.213L413.558 265.178L415.06 266.033L168.31 406.068Z" fill="#91A2FA"/>
<path opacity="0.05" d="M172.658 408.539L171.156 407.684L417.906 267.649L419.408 268.504L172.658 408.539Z" fill="#91A2FA"/>
<path opacity="0.05" d="M177.006 411.01L175.504 410.14L422.255 270.106L423.757 270.961L177.006 411.01Z" fill="#91A2FA"/>
<path opacity="0.05" d="M181.354 413.466L179.852 412.611L426.587 272.577L428.104 273.431L181.354 413.466Z" fill="#91A2FA"/>
<path opacity="0.05" d="M185.702 415.937L184.2 415.083L430.95 275.048L432.452 275.903L185.702 415.937Z" fill="#91A2FA"/>
<path opacity="0.05" d="M190.05 418.409L188.548 417.554L435.283 277.504L436.801 278.374L190.05 418.409Z" fill="#91A2FA"/>
<path opacity="0.05" d="M194.399 420.88L192.896 420.009L439.631 279.975L441.149 280.845L194.399 420.88Z" fill="#91A2FA"/>
<path opacity="0.05" d="M198.747 423.335L197.229 422.48L443.979 282.446L445.497 283.301L198.747 423.335Z" fill="#91A2FA"/>
<path opacity="0.05" d="M203.095 425.807L201.577 424.952L448.327 284.918L449.845 285.773L203.095 425.807Z" fill="#91A2FA"/>
<path opacity="0.05" d="M207.443 428.278L205.925 427.423L452.676 287.373L454.194 288.243L207.443 428.278Z" fill="#91A2FA"/>
<path opacity="0.05" d="M211.791 430.749L210.273 429.879L457.023 289.844L458.541 290.715L211.791 430.749Z" fill="#91A2FA"/>
<path opacity="0.05" d="M216.139 433.204L214.621 432.35L461.371 292.315L462.889 293.17L216.139 433.204Z" fill="#91A2FA"/>
<path opacity="0.05" d="M220.488 435.675L218.97 434.821L465.721 294.786L467.238 295.641L220.488 435.675Z" fill="#91A2FA"/>
<path opacity="0.05" d="M224.835 438.147L223.318 437.293L470.068 297.258L471.586 298.113L224.835 438.147Z" fill="#91A2FA"/>
<path opacity="0.05" d="M229.184 440.619L227.666 439.748L474.416 299.714L475.934 300.569L229.184 440.619Z" fill="#91A2FA"/>
<path opacity="0.05" d="M233.532 443.074L232.014 442.219L478.764 302.185L480.282 303.04L233.532 443.074Z" fill="#91A2FA"/>
<path opacity="0.05" d="M237.88 445.545L236.362 444.69L483.113 304.656L484.631 305.511L237.88 445.545Z" fill="#91A2FA"/>
<path opacity="0.05" d="M242.228 448.016L240.71 447.161L487.46 307.111L488.978 307.982L242.228 448.016Z" fill="#91A2FA"/>
<path opacity="0.05" d="M246.576 450.472L245.058 449.617L491.808 309.582L493.31 310.437L246.576 450.472Z" fill="#91A2FA"/>
<path opacity="0.05" d="M250.924 452.943L249.406 452.089L496.157 312.054L497.659 312.909L250.924 452.943Z" fill="#91A2FA"/>
<path opacity="0.05" d="M255.256 455.414L253.754 454.56L500.504 314.525L502.006 315.38L255.256 455.414Z" fill="#91A2FA"/>
<path opacity="0.05" d="M259.604 457.886L258.102 457.031L504.852 316.981L506.354 317.851L259.604 457.886Z" fill="#91A2FA"/>
<path opacity="0.05" d="M263.953 460.341L262.451 459.486L509.201 319.452L510.703 320.307L263.953 460.341Z" fill="#91A2FA"/>
<path opacity="0.05" d="M268.301 462.812L266.799 461.957L513.55 321.923L515.052 322.778L268.301 462.812Z" fill="#91A2FA"/>
<path opacity="0.05" d="M272.649 465.284L271.147 464.429L517.897 324.395L519.399 325.25L272.649 465.284Z" fill="#91A2FA"/>
<path opacity="0.05" d="M276.996 467.755L275.478 466.885L522.228 326.851L523.746 327.721L276.996 467.755Z" fill="#91A2FA"/>
<path opacity="0.05" d="M281.344 470.211L279.826 469.356L526.577 329.321L528.094 330.176L281.344 470.211Z" fill="#91A2FA"/>
<path opacity="0.05" d="M285.692 472.681L284.175 471.827L530.925 331.792L532.443 332.647L285.692 472.681Z" fill="#91A2FA"/>
<path opacity="0.05" d="M290.04 475.153L288.522 474.298L535.272 334.264L536.79 335.118L290.04 475.153Z" fill="#91A2FA"/>
<path opacity="0.05" d="M294.388 477.623L292.87 476.753L539.62 336.719L541.138 337.589L294.388 477.623Z" fill="#91A2FA"/>
<path opacity="0.05" d="M298.736 480.08L297.218 479.225L543.969 339.191L545.487 340.046L298.736 480.08Z" fill="#91A2FA"/>
<path opacity="0.05" d="M303.084 482.551L301.566 481.696L548.316 341.662L549.834 342.517L303.084 482.551Z" fill="#91A2FA"/>
</g>
</g>
<path d="M195.094 283.441C250.433 252.062 340.083 252.062 395.407 283.441C421.843 298.455 435.63 317.913 436.8 337.574C438.065 316.111 424.278 294.414 395.407 278.032C340.067 246.637 250.402 246.637 195.094 278.032C166.223 294.414 152.404 316.111 153.7 337.574C154.87 317.913 168.705 298.439 195.094 283.441Z" fill="url(#paint22_linear_206_151)"/>
<path d="M339.024 317.851C330.59 317.116 322.105 318.512 314.374 321.907C323.861 314.136 321.674 306.194 307.812 298.081L306.785 297.491C302.289 294.858 297.463 292.815 292.428 291.414C287.663 290.049 282.733 289.322 277.771 289.253C273.033 289.283 268.317 289.889 263.731 291.056C261.169 291.699 258.724 292.414 256.394 293.201L247.477 288.134L234.353 295.579L241.69 299.76C240.393 300.444 239.081 301.159 237.737 301.92L232.994 304.656L225.72 300.521L212.597 307.966L219.87 312.1L210.81 317.245L207.269 319.265L206.304 319.794L191.252 328.342L204.375 335.802L219.427 327.254L314.01 380.967L298.942 389.516L312.066 396.96L327.134 388.412L331.64 385.863L340.7 380.719L348.099 384.915L361.223 377.47L356.479 374.813L353.776 373.258L362.488 368.316L369.887 372.512L383.011 365.068L378.267 362.41L374.504 360.265C379.674 355.836 382.41 351.36 382.758 346.852C383.137 340.117 377.445 333.383 365.681 326.648L364.891 326.181C356.974 321.617 348.153 318.776 339.024 317.851V317.851ZM250.923 314.836L255.145 312.427C265.602 306.5 275.615 306.241 285.186 311.65C290.784 314.758 293.819 317.726 294.341 320.353C294.863 322.98 292.238 325.933 286.436 329.197L281.328 332.087L250.923 314.836ZM335.229 362.674L298.911 342.112L304.16 339.128C309.15 336.02 314.95 334.401 320.857 334.465C326.064 334.714 332.072 336.786 338.881 340.682C344.953 344.133 348.231 347.319 348.716 350.241C349.206 353.162 346.55 356.271 340.81 359.566L335.229 362.674Z" fill="url(#paint23_linear_206_151)"/>
<path d="M212.518 297.506V305.775L219.791 301.641L212.518 297.506Z" fill="url(#paint24_linear_206_151)"/>
<path d="M234.353 285.119V293.388L241.689 289.3L234.353 285.119Z" fill="url(#paint25_linear_206_151)"/>
<path d="M320.177 301.656V311.478L313.599 307.515L320.177 301.656Z" fill="url(#paint26_linear_206_151)"/>
<path d="M382.837 334.87V346.868L372.971 340.869L382.837 334.87Z" fill="url(#paint27_linear_206_151)"/>
<path d="M339.024 307.391C330.59 306.657 322.105 308.053 314.374 311.448C323.861 303.677 321.674 295.73 307.812 287.606L306.785 287.031C302.289 284.399 297.463 282.356 292.428 280.954C287.665 279.582 282.734 278.855 277.771 278.794C273.033 278.824 268.317 279.429 263.731 280.597C261.169 281.229 258.724 281.944 256.394 282.742L247.477 277.675L234.353 285.119L241.69 289.3C240.393 289.984 239.081 290.699 237.737 291.461L232.994 294.196L225.72 290.062L212.597 297.507L219.87 301.641L210.81 306.785L207.269 308.79L206.304 309.334L191.252 317.882L204.375 325.342L219.427 316.794L314.089 370.508L299.021 379.056L312.145 386.501L327.213 377.953L331.719 375.404L340.779 370.259L348.178 374.456L361.302 367.011L356.558 364.353L353.855 362.799L362.567 357.857L369.966 362.053L383.09 354.608L378.346 351.951L374.583 349.806C379.754 345.376 382.489 340.9 382.837 336.393C383.216 329.658 377.524 322.923 365.761 316.188L364.97 315.737C357.034 311.15 348.183 308.303 339.024 307.391V307.391ZM250.923 304.376L255.145 301.967C265.602 296.04 275.615 295.781 285.186 301.19C290.784 304.298 293.819 307.267 294.341 309.894C294.863 312.52 292.238 315.473 286.436 318.737L281.328 321.628L250.923 304.376ZM335.229 352.215L298.974 331.653L304.223 328.668C309.213 325.561 315.013 323.941 320.92 324.006C326.127 324.255 332.135 326.327 338.945 330.223C345.016 333.673 348.294 336.859 348.779 339.781C349.269 342.703 346.613 345.811 340.874 349.106L335.229 352.215Z" fill="url(#paint28_linear_206_151)"/>
<path d="M383.057 354.624V365.083L369.934 372.528V362.068L383.057 354.624Z" fill="url(#paint29_linear_206_151)"/>
<path d="M361.223 367.011V377.471L348.099 384.915V374.455L361.223 367.011Z" fill="url(#paint30_linear_206_151)"/>
<path d="M312.08 386.501V396.961L298.941 389.516V379.056L312.08 386.501Z" fill="url(#paint31_linear_206_151)"/>
<path d="M191.173 317.882V328.357L204.297 335.802V325.342L191.173 317.882Z" fill="url(#paint32_linear_206_151)"/>
<path d="M219.348 327.254V316.794L204.296 325.342V335.802L219.348 327.254Z" fill="url(#paint33_linear_206_151)"/>
<path d="M219.347 316.794V327.254L304.791 375.745L314.009 370.508L219.347 316.794Z" fill="url(#paint34_linear_206_151)"/>
<path d="M297.203 259.226C291.62 259.34 286.1 258.045 281.17 255.465C276.712 252.947 274.261 249.528 274.261 245.86C274.261 242.192 276.712 238.788 281.17 236.255C290.009 231.25 304.397 231.25 313.251 236.255C317.694 238.788 320.145 242.208 320.145 245.86C320.145 249.512 317.694 252.947 313.251 255.465C308.317 258.045 302.792 259.34 297.203 259.226V259.226ZM297.203 234.203C291.924 234.108 286.706 235.333 282.04 237.762C278.166 239.969 276.032 242.845 276.032 245.86C276.032 248.875 278.166 251.766 282.056 253.973C290.404 258.713 304.002 258.713 312.366 253.973C316.24 251.766 318.39 248.891 318.39 245.86C318.39 242.829 316.24 239.969 312.366 237.762C307.701 235.331 302.483 234.106 297.203 234.203V234.203Z" fill="#91A2FA"/>
<path d="M306.706 251.253C303.767 252.722 300.517 253.487 297.219 253.487C293.922 253.487 290.672 252.722 287.733 251.253C282.483 248.284 282.483 243.482 287.733 240.482C290.672 239.014 293.922 238.248 297.219 238.248C300.517 238.248 303.767 239.014 306.706 240.482C311.94 243.451 311.94 248.284 306.706 251.253Z" fill="#92FCC3"/>
<path d="M352.589 219.764L343.181 214.433L359.198 205.341L368.621 210.672L352.589 219.764Z" fill="#91A2FA"/>
<path opacity="0.8" d="M335.671 211.341L323.812 207.906L334.105 196.452L345.964 199.886L335.671 211.341Z" fill="#91A2FA"/>
<path opacity="0.6" d="M314.991 206.274L301.852 205.093L305.394 192.395L318.533 193.576L314.991 206.274Z" fill="#91A2FA"/>
<path opacity="0.4" d="M292.569 205.093L279.415 206.274L275.873 193.576L289.012 192.395L292.569 205.093Z" fill="#91A2FA"/>
<path opacity="0.2" d="M270.592 207.906L258.734 211.341L248.457 199.871L260.299 196.452L270.592 207.906Z" fill="#91A2FA"/>
<path opacity="0.1" d="M251.223 214.433L241.815 219.764L225.798 210.672L235.206 205.341L251.223 214.433Z" fill="#91A2FA"/>
<path opacity="0.2" d="M321.189 234.141L317.884 232.26L341.791 218.692L345.095 220.572L321.189 234.141Z" fill="#91A2FA"/>
<path opacity="0.4" d="M313.615 230.504L309.457 229.292L324.81 212.195L328.968 213.408L313.615 230.504Z" fill="#91A2FA"/>
<path opacity="0.6" d="M304.46 228.375L299.844 227.955L305.124 209.01L309.741 209.429L304.46 228.375Z" fill="#91A2FA"/>
<path opacity="0.8" d="M294.578 227.955L289.962 228.375L284.665 209.429L289.282 209.01L294.578 227.955Z" fill="#91A2FA"/>
<path d="M284.949 229.292L280.791 230.504L265.438 213.408L269.612 212.195L284.949 229.292Z" fill="#91A2FA"/>
<path d="M276.537 232.26L273.232 234.141L249.326 220.572L252.63 218.692L276.537 232.26Z" fill="#91A2FA"/>
<path d="M270.134 236.55L268.015 238.912L237.895 230.193L240.013 227.831L270.134 236.55Z" fill="#91A2FA"/>
<path d="M266.385 241.756L265.658 244.367L232.265 241.368L232.992 238.741L266.385 241.756Z" fill="#91A2FA"/>
<path d="M265.658 247.352L266.385 249.978L232.992 252.978L232.265 250.351L265.658 247.352Z" fill="#91A2FA"/>
<path d="M268.015 252.823L270.134 255.185L240.013 263.889L237.895 261.526L268.015 252.823Z" fill="#91A2FA"/>
<path d="M273.232 257.594L276.537 259.475L252.63 273.043L249.326 271.162L273.232 257.594Z" fill="#91A2FA"/>
<path opacity="0.6" d="M391.106 201.813C426.254 225.872 428.215 260.267 397.035 285.507L409.684 296.962C452.706 266.531 451.758 222.717 406.885 192.83L391.106 201.813Z" fill="#92FCC3"/>
<path opacity="0.2" d="M316.224 314.168C279.052 317.478 239.682 311.059 211.048 294.771C204.795 291.279 198.961 287.109 193.655 282.338L172.2 286.534C179.102 293.206 186.869 298.954 195.3 303.63C231.523 324.177 282.262 331.482 328.778 325.56L316.224 314.168Z" fill="#91A2FA"/>
<path d="M154.617 257.47L176.073 253.274C172.278 233.193 183.979 212.351 211.048 196.964C255.888 171.522 326.96 170.061 374.836 192.566L390.568 183.645C333.98 156.229 248.852 157.689 195.347 188.059C162.001 206.974 148.435 232.867 154.617 257.47Z" fill="#92FCC3"/>
<path d="M284.064 291.585L275.668 286.829L383.469 225.64L391.865 230.396L284.064 291.585Z" fill="#92FCC3"/>
<path opacity="0.8" d="M295.985 298.361L287.589 293.59L334.454 266.997L342.849 271.768L295.985 298.361Z" fill="#92FCC3"/>
<path opacity="0.6" d="M308.745 305.604L300.35 300.832L374.947 258.511L383.343 263.267L308.745 305.604Z" fill="#92FCC3"/>
<path opacity="0.2" d="M321.315 312.722L312.903 307.966L370.978 275.017L379.374 279.773L321.315 312.722Z" fill="#92FCC3"/>
<defs>
<linearGradient id="paint0_linear_206_151" x1="523.31" y1="530.116" x2="603.336" y2="577.134" gradientUnits="userSpaceOnUse">
<stop stop-color="#BCBEFF"/>
<stop offset="0.23" stop-color="#AAADF8"/>
<stop offset="0.68" stop-color="#7C83E5"/>
<stop offset="1" stop-color="#5761D7"/>
</linearGradient>
<linearGradient id="paint1_linear_206_151" x1="513.181" y1="547.437" x2="614.934" y2="547.437" gradientUnits="userSpaceOnUse">
<stop stop-color="#E9E9FD"/>
<stop offset="0.36" stop-color="#D3D2F9"/>
<stop offset="0.71" stop-color="#C5C4F7"/>
<stop offset="1" stop-color="#C0BFF6"/>
</linearGradient>
<linearGradient id="paint2_linear_206_151" x1="53313.6" y1="9528.62" x2="55053.5" y2="12100.4" gradientUnits="userSpaceOnUse">
<stop stop-color="#BCBEFF"/>
<stop offset="0.23" stop-color="#AAADF8"/>
<stop offset="0.68" stop-color="#7C83E5"/>
<stop offset="1" stop-color="#5761D7"/>
</linearGradient>
<linearGradient id="paint3_linear_206_151" x1="52760.6" y1="14075.8" x2="57994" y2="14075.8" gradientUnits="userSpaceOnUse">
<stop stop-color="#E9E9FD"/>
<stop offset="0.36" stop-color="#D3D2F9"/>
<stop offset="0.71" stop-color="#C5C4F7"/>
<stop offset="1" stop-color="#C0BFF6"/>
</linearGradient>
<linearGradient id="paint4_linear_206_151" x1="371.606" y1="453.479" x2="544.796" y2="453.479" gradientUnits="userSpaceOnUse">
<stop stop-color="#5778FF"/>
<stop offset="0.1042" stop-color="#567FFF"/>
<stop offset="0.2607" stop-color="#5394FF"/>
<stop offset="0.4503" stop-color="#4DB6FF"/>
<stop offset="0.6638" stop-color="#46E4FF"/>
<stop offset="0.7742" stop-color="#42FFFF"/>
</linearGradient>
<linearGradient id="paint5_linear_206_151" x1="43833.8" y1="11841.4" x2="45573.7" y2="14413.2" gradientUnits="userSpaceOnUse">
<stop stop-color="#BCBEFF"/>
<stop offset="0.23" stop-color="#AAADF8"/>
<stop offset="0.68" stop-color="#7C83E5"/>
<stop offset="1" stop-color="#5761D7"/>
</linearGradient>
<linearGradient id="paint6_linear_206_151" x1="43306.2" y1="17439.7" x2="48543.1" y2="17439.7" gradientUnits="userSpaceOnUse">
<stop stop-color="#E9E9FD"/>
<stop offset="0.36" stop-color="#D3D2F9"/>
<stop offset="0.71" stop-color="#C5C4F7"/>
<stop offset="1" stop-color="#C0BFF6"/>
</linearGradient>
<linearGradient id="paint7_linear_206_151" x1="43833.8" y1="10492.5" x2="45573.1" y2="13063.6" gradientUnits="userSpaceOnUse">
<stop stop-color="#BCBEFF"/>
<stop offset="0.23" stop-color="#AAADF8"/>
<stop offset="0.68" stop-color="#7C83E5"/>
<stop offset="1" stop-color="#5761D7"/>
</linearGradient>
<linearGradient id="paint8_linear_206_151" x1="43306.2" y1="15503.9" x2="48543.1" y2="15503.9" gradientUnits="userSpaceOnUse">
<stop stop-color="#E9E9FD"/>
<stop offset="0.36" stop-color="#D3D2F9"/>
<stop offset="0.71" stop-color="#C5C4F7"/>
<stop offset="1" stop-color="#C0BFF6"/>
</linearGradient>
<linearGradient id="paint9_linear_206_151" x1="228.314" y1="469.7" x2="55.1274" y2="470.741" gradientUnits="userSpaceOnUse">
<stop stop-color="#5778FF"/>
<stop offset="0.1042" stop-color="#567FFF"/>
<stop offset="0.2607" stop-color="#5394FF"/>
<stop offset="0.4503" stop-color="#4DB6FF"/>
<stop offset="0.6638" stop-color="#46E4FF"/>
<stop offset="0.7742" stop-color="#42FFFF"/>
</linearGradient>
<linearGradient id="paint10_linear_206_151" x1="27095.4" y1="5161.86" x2="28835.3" y2="7731.49" gradientUnits="userSpaceOnUse">
<stop stop-color="#BCBEFF"/>
<stop offset="0.23" stop-color="#AAADF8"/>
<stop offset="0.68" stop-color="#7C83E5"/>
<stop offset="1" stop-color="#5761D7"/>
</linearGradient>
<linearGradient id="paint11_linear_206_151" x1="26549.3" y1="7900.77" x2="31776.8" y2="7900.77" gradientUnits="userSpaceOnUse">
<stop stop-color="#E9E9FD"/>
<stop offset="0.36" stop-color="#D3D2F9"/>
<stop offset="0.71" stop-color="#C5C4F7"/>
<stop offset="1" stop-color="#C0BFF6"/>
</linearGradient>
<linearGradient id="paint12_linear_206_151" x1="27095.4" y1="3948.11" x2="28840.3" y2="6519.72" gradientUnits="userSpaceOnUse">
<stop stop-color="#BCBEFF"/>
<stop offset="0.23" stop-color="#AAADF8"/>
<stop offset="0.68" stop-color="#7C83E5"/>
<stop offset="1" stop-color="#5761D7"/>
</linearGradient>
<linearGradient id="paint13_linear_206_151" x1="527.13" y1="116.854" x2="598.471" y2="158.753" gradientUnits="userSpaceOnUse">
<stop offset="0.24" stop-color="#5761D7"/>
<stop offset="0.39" stop-color="#7A82E5"/>
<stop offset="0.55" stop-color="#979CF0"/>
<stop offset="0.7" stop-color="#ACAFF8"/>
<stop offset="0.85" stop-color="#B8BAFD"/>
<stop offset="1" stop-color="#BCBEFF"/>
</linearGradient>
<linearGradient id="paint14_linear_206_151" x1="26574.6" y1="6150.71" x2="31807.2" y2="6150.71" gradientUnits="userSpaceOnUse">
<stop stop-color="#E9E9FD"/>
<stop offset="0.36" stop-color="#D3D2F9"/>
<stop offset="0.71" stop-color="#C5C4F7"/>
<stop offset="1" stop-color="#C0BFF6"/>
</linearGradient>
<linearGradient id="paint15_linear_206_151" x1="25843.3" y1="5963.93" x2="30757.5" y2="5963.93" gradientUnits="userSpaceOnUse">
<stop stop-color="#E9E9FD"/>
<stop offset="0.36" stop-color="#D3D2F9"/>
<stop offset="0.71" stop-color="#C5C4F7"/>
<stop offset="1" stop-color="#C0BFF6"/>
</linearGradient>
<linearGradient id="paint16_linear_206_151" x1="419.34" y1="311.499" x2="503.612" y2="162.877" gradientUnits="userSpaceOnUse">
<stop stop-color="#5778FF"/>
<stop offset="0.1042" stop-color="#567FFF"/>
<stop offset="0.2607" stop-color="#5394FF"/>
<stop offset="0.4503" stop-color="#4DB6FF"/>
<stop offset="0.6638" stop-color="#46E4FF"/>
<stop offset="0.7742" stop-color="#42FFFF"/>
</linearGradient>
<linearGradient id="paint17_linear_206_151" x1="101733" y1="-16197.8" x2="120539" y2="14892.2" gradientUnits="userSpaceOnUse">
<stop stop-color="#35068C"/>
<stop offset="0.02" stop-color="#40DDDA"/>
<stop offset="0.09" stop-color="#3AAEC0"/>
<stop offset="0.17" stop-color="#3484A9"/>
<stop offset="0.26" stop-color="#2F6195"/>
<stop offset="0.35" stop-color="#2B4486"/>
<stop offset="0.44" stop-color="#282E79"/>
<stop offset="0.54" stop-color="#261E71"/>
<stop offset="0.66" stop-color="#24156C"/>
<stop offset="0.82" stop-color="#24126A"/>
</linearGradient>
<linearGradient id="paint18_linear_206_151" x1="111.167" y1="362.675" x2="427.867" y2="362.675" gradientUnits="userSpaceOnUse">
<stop stop-color="#3671E9"/>
<stop offset="0.15" stop-color="#91A2FA"/>
<stop offset="0.33" stop-color="#8B97F1"/>
<stop offset="0.52" stop-color="#7366C8"/>
<stop offset="0.72" stop-color="#654CB3"/>
<stop offset="0.93" stop-color="#4127A7"/>
<stop offset="1" stop-color="#260672"/>
</linearGradient>
<linearGradient id="paint19_linear_206_151" x1="22565.4" y1="45113.4" x2="86361.8" y2="45113.4" gradientUnits="userSpaceOnUse">
<stop stop-color="#42E8E0"/>
<stop offset="0.15" stop-color="#43E3E0"/>
<stop offset="0.33" stop-color="#45D5DF"/>
<stop offset="0.52" stop-color="#49BDDD"/>
<stop offset="0.72" stop-color="#4E9CDB"/>
<stop offset="0.93" stop-color="#5472D8"/>
<stop offset="1" stop-color="#5761D7"/>
</linearGradient>
<linearGradient id="paint20_linear_206_151" x1="104517" y1="-22241.8" x2="123324" y2="8848.31" gradientUnits="userSpaceOnUse">
<stop stop-color="#654CB2"/>
<stop offset="0.02" stop-color="#40DDDA"/>
<stop offset="0.09" stop-color="#3AAEC0"/>
<stop offset="0.17" stop-color="#3484A9"/>
<stop offset="0.26" stop-color="#2F6195"/>
<stop offset="0.35" stop-color="#2B4486"/>
<stop offset="0.44" stop-color="#282E79"/>
<stop offset="0.54" stop-color="#261E71"/>
<stop offset="0.66" stop-color="#24156C"/>
<stop offset="0.82" stop-color="#24126A"/>
</linearGradient>
<linearGradient id="paint21_linear_206_151" x1="270.276" y1="212.227" x2="346.84" y2="601.457" gradientUnits="userSpaceOnUse">
<stop stop-color="#42E8E0"/>
<stop offset="0.02" stop-color="#40DDDA"/>
<stop offset="0.09" stop-color="#3AAEC0"/>
<stop offset="0.17" stop-color="#3484A9"/>
<stop offset="0.26" stop-color="#2F6195"/>
<stop offset="0.35" stop-color="#2B4486"/>
<stop offset="0.44" stop-color="#282E79"/>
<stop offset="0.54" stop-color="#261E71"/>
<stop offset="0.66" stop-color="#24156C"/>
<stop offset="0.82" stop-color="#24126A"/>
</linearGradient>
<linearGradient id="paint22_linear_206_151" x1="153.621" y1="296.03" x2="436.88" y2="296.03" gradientUnits="userSpaceOnUse">
<stop stop-color="#2B237C"/>
<stop offset="1" stop-color="#180D5B"/>
</linearGradient>
<linearGradient id="paint23_linear_206_151" x1="20366.2" y1="28406.6" x2="43638" y2="28406.6" gradientUnits="userSpaceOnUse">
<stop stop-color="#2B237C"/>
<stop offset="1" stop-color="#180D5B"/>
</linearGradient>
<linearGradient id="paint24_linear_206_151" x1="1090.46" y1="2185.27" x2="1094.5" y2="2244.99" gradientUnits="userSpaceOnUse">
<stop stop-color="#2B237D"/>
<stop offset="0.02" stop-color="#40DDDA"/>
<stop offset="0.09" stop-color="#3AAEC0"/>
<stop offset="0.17" stop-color="#3484A9"/>
<stop offset="0.26" stop-color="#2F6195"/>
<stop offset="0.35" stop-color="#2B4486"/>
<stop offset="0.44" stop-color="#282E79"/>
<stop offset="0.54" stop-color="#261E71"/>
<stop offset="0.66" stop-color="#24156C"/>
<stop offset="0.82" stop-color="#24126A"/>
</linearGradient>
<linearGradient id="paint25_linear_206_151" x1="1221.39" y1="2106.98" x2="1225.3" y2="2166.71" gradientUnits="userSpaceOnUse">
<stop stop-color="#2C247E"/>
<stop offset="0.02" stop-color="#40DDDA"/>
<stop offset="0.09" stop-color="#3AAEC0"/>
<stop offset="0.17" stop-color="#3484A9"/>
<stop offset="0.26" stop-color="#2F6195"/>
<stop offset="0.35" stop-color="#2B4486"/>
<stop offset="0.44" stop-color="#282E79"/>
<stop offset="0.54" stop-color="#261E71"/>
<stop offset="0.66" stop-color="#24156C"/>
<stop offset="0.82" stop-color="#24126A"/>
</linearGradient>
<linearGradient id="paint26_linear_206_151" x1="1527.47" y1="2571.07" x2="1534.92" y2="2655.28" gradientUnits="userSpaceOnUse">
<stop stop-color="#2B237C"/>
<stop offset="1" stop-color="#180D5B"/>
</linearGradient>
<linearGradient id="paint27_linear_206_151" x1="2549.06" y1="3407.33" x2="2634.29" y2="3422.05" gradientUnits="userSpaceOnUse">
<stop stop-color="#2B237C"/>
<stop offset="1" stop-color="#180D5B"/>
</linearGradient>
<linearGradient id="paint28_linear_206_151" x1="21364.4" y1="26289.2" x2="92096.9" y2="52419.4" gradientUnits="userSpaceOnUse">
<stop stop-color="#654DB3"/>
<stop offset="0.0899" stop-color="#40DDDA"/>
<stop offset="0.09" stop-color="#E9E9FE"/>
<stop offset="0.17" stop-color="#654DB3"/>
<stop offset="0.26" stop-color="#2F6195"/>
<stop offset="0.35" stop-color="#2B4486"/>
<stop offset="0.44" stop-color="#282E79"/>
<stop offset="0.54" stop-color="#261E71"/>
<stop offset="0.66" stop-color="#24156C"/>
<stop offset="0.82" stop-color="#24126A"/>
</linearGradient>
<linearGradient id="paint29_linear_206_151" x1="3235.68" y1="5207.83" x2="3376.75" y2="5229.51" gradientUnits="userSpaceOnUse">
<stop stop-color="#2B237C"/>
<stop offset="1" stop-color="#180D5B"/>
</linearGradient>
<linearGradient id="paint30_linear_206_151" x1="3032.74" y1="5362.92" x2="3173.8" y2="5384.6" gradientUnits="userSpaceOnUse">
<stop stop-color="#2B237C"/>
<stop offset="1" stop-color="#180D5B"/>
</linearGradient>
<linearGradient id="paint31_linear_206_151" x1="2566.1" y1="5510.32" x2="2739.89" y2="5537.07" gradientUnits="userSpaceOnUse">
<stop stop-color="#2B237C"/>
<stop offset="1" stop-color="#180D5B"/>
</linearGradient>
<linearGradient id="paint32_linear_206_151" x1="1619.91" y1="4620.31" x2="1643.58" y2="4912.42" gradientUnits="userSpaceOnUse">
<stop stop-color="#2C247D"/>
<stop offset="0.02" stop-color="#40DDDA"/>
<stop offset="0.09" stop-color="#3AAEC0"/>
<stop offset="0.17" stop-color="#3484A9"/>
<stop offset="0.26" stop-color="#2F6195"/>
<stop offset="0.35" stop-color="#2B4486"/>
<stop offset="0.44" stop-color="#282E79"/>
<stop offset="0.54" stop-color="#261E71"/>
<stop offset="0.66" stop-color="#24156C"/>
<stop offset="0.82" stop-color="#24126A"/>
</linearGradient>
<linearGradient id="paint33_linear_206_151" x1="1977.46" y1="4878.14" x2="1999.97" y2="5179.37" gradientUnits="userSpaceOnUse">
<stop stop-color="#2B237C"/>
<stop offset="1" stop-color="#180D5B"/>
</linearGradient>
<linearGradient id="paint34_linear_206_151" x1="14532.2" y1="14027.1" x2="14654" y2="17334.2" gradientUnits="userSpaceOnUse">
<stop stop-color="#91A2FA"/>
<stop offset="0.0199" stop-color="#91A2FA"/>
<stop offset="0.02" stop-color="#654DB3"/>
<stop offset="0.09" stop-color="#654DB3"/>
<stop offset="0.17" stop-color="#654DB3"/>
<stop offset="0.26" stop-color="#654CB3"/>
<stop offset="0.35" stop-color="#35068C"/>
<stop offset="0.44" stop-color="#35068C"/>
<stop offset="0.54" stop-color="#35068C"/>
<stop offset="0.66" stop-color="#35068C"/>
<stop offset="0.82" stop-color="#35068C"/>
</linearGradient>
</defs>
</svg>
