<svg width="1440" height="292" viewBox="0 0 1440 292" fill="none" xmlns="http://www.w3.org/2000/svg">
<g opacity="0.4">
<path d="M0 291C479.321 291 958.641 291 1437.96 291" stroke="url(#paint0_linear_257_2)" stroke-miterlimit="10"/>
<path d="M0 282.866C242.716 282.926 485.312 281.472 727.968 279.827C832.959 279.111 938.669 279.346 1043.65 280.855C1175.06 282.741 1306.54 280.964 1437.92 282.866" stroke="url(#paint1_linear_257_2)" stroke-miterlimit="10"/>
<path d="M0 274.852C68.7725 274.852 137.565 275.142 206.328 275C267.78 274.874 329.093 272.146 390.526 271.676C504.964 270.802 619.382 271.818 733.81 270.785C835.376 269.867 937.99 267.434 1039.49 271.146C1098.64 273.333 1157.19 274.328 1216.4 275.229C1290.29 276.356 1364.1 273.3 1437.96 274.852" stroke="url(#paint2_linear_257_2)" stroke-miterlimit="10"/>
<path d="M0 266.947C67.7839 266.947 135.748 267.57 203.512 266.898C267.191 266.263 330.501 261.819 394.131 260.677C508.789 258.616 622.547 264.503 737.085 263.454C837.872 262.546 937.231 255.177 1038.13 261.77C1097.1 265.624 1154.25 268.641 1213.66 269.521C1288.55 270.615 1363.08 265.296 1437.96 266.947" stroke="url(#paint3_linear_257_2)" stroke-miterlimit="10"/>
<path d="M0 259.195C66.5557 259.195 133.601 260.19 200.106 258.818C266.612 257.446 332.169 251.132 398.475 249.093C458.75 247.24 518.175 247.737 578.13 251.772C631.864 255.391 684.06 258.004 738.233 257.61C785.716 257.26 830.203 253.313 877.097 249.634C930.761 245.42 986.012 247.388 1039.18 252.756C1097.69 258.671 1152.89 264.328 1212.64 264.973C1288.01 265.793 1362.54 257.78 1437.96 259.195" stroke="url(#paint4_linear_257_2)" stroke-miterlimit="10"/>
<path d="M0 251.554C65.1177 251.554 131.224 252.894 196.232 250.751C265.693 248.466 333.977 240.189 403.288 237.084C462.799 234.384 522.708 236.235 581.286 242.584C633.582 248.171 684.14 253.161 737.594 252.932C787.094 252.719 831.881 245.858 879.933 240.31C934.475 234.012 988.449 236.401 1042.16 244.038C1099.73 252.238 1152.88 261.072 1213.04 261.307C1288.54 261.607 1362.33 250.636 1437.96 251.56" stroke="url(#paint5_linear_257_2)" stroke-miterlimit="10"/>
<path d="M0 244.031C63.5799 243.998 128.718 245.671 192.078 242.747C264.815 239.417 335.874 229.146 408.341 224.855C469.155 221.258 525.355 224.603 584.012 233.639C634.231 241.38 682.872 249.132 735.547 249.148C787.633 249.148 833.968 238.843 883.398 231.322C939.708 222.755 991.634 225.248 1046.66 235.596C1102.66 246.125 1154.07 258.556 1214.57 258.283C1289.96 257.911 1362.36 243.78 1437.96 244.031" stroke="url(#paint6_linear_257_2)" stroke-miterlimit="10"/>
<path d="M0 236.629C61.9721 236.58 126.131 238.439 187.734 234.842C263.806 230.403 337.522 218.147 413.324 212.615C474.987 208.116 528.511 212.927 586.219 224.964C633.831 234.897 680.595 245.66 732.412 245.999C787.174 246.36 836.544 232.207 887.192 222.679C945.679 211.675 995.619 214.014 1052.14 227.424C1105.96 240.194 1156.15 256.588 1216.9 255.669C1292.03 254.532 1362.52 237.154 1437.94 236.629" stroke="url(#paint7_linear_257_2)" stroke-miterlimit="10"/>
<path d="M0 229.349C60.3844 229.283 123.545 231.262 183.48 227.069C262.807 221.521 339.189 207.341 418.147 200.573C481.058 195.177 531.546 201.355 588.036 216.563C632.713 228.589 677.589 242.479 728.687 243.212C786.126 244.026 839.46 225.643 891.276 214.343C918.418 208.456 947.027 202.94 976.616 204.208C1005.57 205.455 1033 212.129 1058.32 219.515C1109.37 234.367 1159.1 254.812 1219.84 253.249C1294.63 251.319 1362.77 230.705 1437.97 229.365" stroke="url(#paint8_linear_257_2)" stroke-miterlimit="10"/>
<path d="M0.0493164 222.192C58.9658 222.11 121.098 224.138 179.395 219.459C261.748 212.866 340.517 196.855 422.401 188.918C486.749 182.675 534.322 190.104 589.284 208.444C630.955 222.351 673.954 239.346 724.592 240.5C784.507 241.861 842.425 219.153 895.23 206.301C922.891 199.566 953.398 192.465 984.294 194.029C1013.25 195.494 1040.38 203.497 1064.6 211.795C1112.88 228.348 1162.1 252.92 1223 250.728C1297.47 248.038 1362.98 224.292 1437.98 222.192" stroke="url(#paint9_linear_257_2)" stroke-miterlimit="10"/>
<path d="M0.0599365 215.162C57.5684 215.064 118.782 217.092 175.591 212.068C260.631 204.541 341.516 186.84 425.936 177.842C458.081 174.42 488.547 172.441 520.033 178.444C545.686 183.336 568.254 191.924 590.024 200.605C628.968 216.125 670.08 236.028 720.598 237.586C782.71 239.505 845.282 212.681 898.946 198.517C927.086 191.088 959.47 182.483 991.544 184.304C1020.63 185.944 1047.41 195.166 1070.58 204.273C1116.3 222.225 1164.93 250.64 1226.15 247.891C1300.36 244.551 1363.15 217.863 1438.02 215.135" stroke="url(#paint10_linear_257_2)" stroke-miterlimit="10"/>
<path d="M0.0698242 208.247C56.37 208.144 116.754 210.161 172.256 204.907C259.452 196.653 341.875 177.432 428.423 167.587C460.677 163.919 491.054 161.645 522.379 168.456C547.793 174.016 569.453 183.555 590.163 193.089C626.821 209.942 666.215 232.344 716.984 234.23C749.428 235.438 782.051 226.172 810.072 218.328C841.157 209.625 871.045 199.709 902.121 190.995C930.681 182.992 964.632 173.174 997.785 175.224C1027.08 177.033 1053.44 187.196 1075.78 196.981C1119.4 216.114 1167.12 247.743 1228.93 244.54C1303 240.713 1363.17 211.369 1438.03 208.226" stroke="url(#paint11_linear_257_2)" stroke-miterlimit="10"/>
<path d="M0.079895 201.459C55.3715 201.355 115.117 203.377 169.55 198.026C258.284 189.307 341.666 168.774 429.661 158.317C461.765 154.49 492.372 152.047 523.378 159.344C548.762 165.319 569.772 175.678 589.734 185.868C624.864 203.793 662.77 228.053 714.158 230.147C747.49 231.492 781.063 221.455 809.522 213.157C841.647 203.782 872.433 193.111 904.558 183.725C933.517 175.258 968.467 164.669 1002.51 166.828C1032.12 168.709 1058.02 179.505 1079.76 189.853C1122.03 209.965 1168.28 243.863 1231.08 240.446C1305.16 236.417 1363.03 204.717 1438.04 201.481" stroke="url(#paint12_linear_257_2)" stroke-miterlimit="10"/>
<path d="M0.0997925 194.789C54.6125 194.702 113.988 196.762 167.622 191.454C257.105 182.599 340.717 160.989 429.391 150.248C461.056 146.421 492.232 143.928 522.799 151.275C548.392 157.425 569.113 168.342 588.705 178.963C623.276 197.736 660.064 222.969 712.53 225.003C746.601 226.326 780.264 216.185 809.123 207.51C841.926 197.67 873.282 186.453 906.075 176.602C935.404 167.79 970.504 157.032 1005.24 159.175C1035.2 161.022 1060.67 172.015 1082.14 182.806C1124.08 203.88 1168.12 238.636 1232.39 235.252C1306.66 231.344 1362.78 197.692 1438.1 194.8" stroke="url(#paint13_linear_257_2)" stroke-miterlimit="10"/>
<path d="M0.109802 188.229C54.4228 188.043 113.609 190.361 167.013 184.949C255.887 175.924 338.43 153.67 426.406 142.676C457.981 138.735 489.137 136.373 519.683 143.633C545.646 149.816 566.776 160.863 586.658 171.616C621.868 190.662 659.046 216.218 712.2 218.601C746.512 220.137 779.974 210.122 808.963 201.31C841.817 191.318 873.112 179.882 905.956 169.883C935.424 160.907 970.344 150.297 1005.34 152.593C1035.5 154.571 1060.82 165.587 1082.33 176.498C1124.44 197.866 1167.64 232.164 1232.42 228.977C1306.9 225.325 1362.44 190.755 1438.07 188.229" stroke="url(#paint14_linear_257_2)" stroke-miterlimit="10"/>
<path d="M0.119751 181.817C54.6624 181.478 113.669 184.403 167.263 178.613C254.559 169.184 335.245 146.563 421.612 135.182C453.567 130.967 483.904 128.775 514.89 136.084C541.323 142.31 563.202 153.243 583.812 163.903C620.191 182.741 658.936 208.554 712.09 211.806C746.192 213.895 779.774 203.852 808.514 195.046C840.968 185.102 871.794 173.655 904.238 163.701C933.646 154.675 968.567 144.147 1003.52 146.875C1033.58 149.22 1059.27 160.393 1081.08 171.184C1123.41 192.121 1167.86 225.773 1231.86 222.679C1306.52 219.066 1362.24 184.299 1438.05 181.817" stroke="url(#paint15_linear_257_2)" stroke-miterlimit="10"/>
<path d="M0.139893 175.514C54.9921 175.109 113.839 178.849 167.762 172.721C253.281 163.001 331.86 140.085 416.41 128.442C448.634 123.992 478.262 122.007 509.598 129.223C536.44 135.406 559.197 146.055 580.577 156.632C618.174 175.219 658.706 200.939 711.811 204.979C745.603 207.553 778.926 197.719 807.405 188.951C839.31 179.111 869.487 167.735 901.372 157.901C930.691 148.859 965.282 138.631 1000.07 141.747C1030.17 144.448 1056.31 155.67 1078.61 166.347C1121.5 186.846 1167.42 219.656 1230.93 216.606C1305.91 213.009 1361.94 178.018 1438.08 175.547" stroke="url(#paint16_linear_257_2)" stroke-miterlimit="10"/>
<path d="M0.15979 169.331C55.3915 168.943 114.208 173.671 168.511 167.232C252.073 157.332 328.365 134.181 410.928 122.335C443.282 117.694 472.35 115.95 503.946 122.958C531.267 129.015 554.874 139.358 577.082 149.744C616.247 167.997 658.197 193.345 711.452 198.129C744.844 201.124 777.578 191.716 805.778 183.008C836.984 173.365 866.392 162.088 897.578 152.434C926.786 143.387 960.708 133.667 995.289 137.127C1025.53 140.161 1052.21 151.34 1075.18 161.869C1118.92 181.915 1166.48 213.719 1229.65 210.685C1305.09 207.061 1361.55 171.834 1438.15 169.347" stroke="url(#paint17_linear_257_2)" stroke-miterlimit="10"/>
<path d="M0.169678 163.269C55.8507 162.963 114.647 168.829 169.44 162.11C250.904 152.123 324.77 128.765 405.205 116.853C437.54 112.053 466.209 110.561 497.964 117.263C525.775 123.134 550.21 133.116 573.327 143.185C614.269 161.023 657.498 185.764 710.952 191.236C775.461 197.845 840.648 163.45 892.924 147.236C922.023 138.205 955.026 129.158 989.307 132.946C1019.78 136.319 1047.03 147.389 1070.78 157.759C1115.64 177.335 1164.97 208.002 1227.98 204.952C1303.98 201.278 1360.98 165.795 1438.13 163.269" stroke="url(#paint18_linear_257_2)" stroke-miterlimit="10"/>
<path d="M0.189758 157.333C56.3601 157.164 115.167 164.287 170.528 157.333C249.806 147.341 321.125 123.873 399.324 111.923C431.548 107.003 459.938 105.778 491.783 112.092C520.103 117.717 545.387 127.256 569.413 137.009C612.132 154.338 656.649 178.254 710.373 184.404C773.903 191.663 836.284 158.263 887.592 142.311C915.962 133.505 949.035 124.627 982.377 129.164C1013.33 133.374 1040.6 143.58 1065.71 153.966C1111.85 173.044 1163.08 202.471 1226.09 199.387C1302.74 195.643 1360.35 159.892 1438.15 157.295" stroke="url(#paint19_linear_257_2)" stroke-miterlimit="10"/>
<path d="M0.209656 151.51C56.9093 151.51 115.776 159.999 171.756 152.789C248.777 142.867 317.48 119.301 393.372 107.417C525.185 86.7584 593.948 163.022 709.734 177.618C772.145 185.495 831.371 153.297 881.75 137.668C909.99 128.922 941.785 120.957 974.708 125.751C1006.05 130.316 1033.96 140.298 1060.08 150.487C1107.66 169.074 1160.87 197.161 1224.01 194.028C1301.38 190.202 1359.66 154.172 1438.18 151.51" stroke="url(#paint20_linear_257_2)" stroke-miterlimit="10"/>
<path d="M0.229675 145.815C57.4785 146.044 116.445 155.928 173.095 148.504C247.819 138.713 313.895 115.093 387.421 103.312C516.508 82.6377 595.126 155.244 709.045 170.884C770.378 179.313 826.049 148.542 875.509 133.214C903.629 124.5 934.036 117.585 966.49 122.598C998.255 127.518 1026.87 137.248 1054.04 147.225C1103.15 165.264 1158.39 192.001 1221.8 188.798C1299.92 184.857 1358.93 148.564 1438.21 145.815" stroke="url(#paint21_linear_257_2)" stroke-miterlimit="10"/>
<path d="M0.249634 140.237C58.0677 140.702 117.154 152.029 174.513 144.419C246.95 134.809 310.32 111.161 381.569 99.5388C507.92 78.9245 596.265 147.562 708.336 164.246C768.57 173.211 820.457 143.954 869.048 128.927C897.068 120.262 925.967 114.457 957.922 119.634C990.126 124.876 1019.48 134.393 1047.72 144.124C1098.41 161.617 1155.69 186.96 1219.42 183.685C1298.31 179.624 1358.1 143.058 1438.17 140.215" stroke="url(#paint22_linear_257_2)" stroke-miterlimit="10"/>
<path d="M0.269531 134.783C58.6468 135.488 117.903 148.263 176.02 140.495C246.221 131.104 306.975 107.444 375.927 96.0193C499.592 75.5252 597.383 140.041 707.617 157.726C766.763 167.216 814.755 139.517 862.517 124.779C890.418 116.169 917.909 111.506 949.334 116.869C981.988 122.445 1012.12 131.721 1041.41 141.211C1093.69 158.157 1152.99 182.101 1217.11 178.744C1296.83 174.568 1357.37 137.745 1438.23 134.783" stroke="url(#paint23_linear_257_2)" stroke-miterlimit="10"/>
<path d="M0.289551 129.453C59.206 130.393 118.662 144.584 177.448 136.685C245.492 127.54 303.679 103.886 370.435 92.6851C491.653 72.3496 598.512 132.667 706.958 151.341C765.025 161.345 809.113 135.204 856.096 120.728C883.877 112.173 910.02 108.653 940.846 114.169C973.949 120.083 1004.84 129.147 1035.18 138.374C1089 154.741 1150.27 177.335 1214.84 173.907C1295.35 169.616 1356.64 132.492 1438.29 129.464" stroke="url(#paint24_linear_257_2)" stroke-miterlimit="10"/>
<path d="M0.30957 124.236C59.8152 125.401 119.411 140.953 178.916 132.945C244.913 124.062 300.644 100.424 365.322 89.4638C484.214 69.3141 599.62 125.445 706.249 145.108C763.348 155.636 803.491 130.944 849.825 116.758C877.516 108.285 902.291 105.825 932.598 111.499C966.13 117.753 997.766 126.636 1029.1 135.596C1084.39 151.4 1147.55 172.665 1212.57 169.15C1293.85 164.749 1355.85 127.358 1438.25 124.236" stroke="url(#paint25_linear_257_2)" stroke-miterlimit="10"/>
<path d="M0.32959 119.148C60.3944 120.504 120.16 137.336 180.334 129.245C244.444 120.63 297.868 96.9925 360.609 86.289C421.473 75.9025 486.221 87.6283 543.07 100.158C597.892 112.244 650.009 128.097 705.65 139.057C762.03 150.165 797.989 126.638 843.974 112.818C905.037 94.4779 967.578 117.738 1023.47 132.82C1080.1 148.083 1145.04 168.079 1210.48 164.488C1292.48 159.994 1355.16 122.341 1438.29 119.143" stroke="url(#paint26_linear_257_2)" stroke-miterlimit="10"/>
<path d="M0.349426 114.174C60.9735 115.688 120.749 133.684 181.692 125.533C244.094 117.18 295.391 93.5595 356.445 83.0911C416.749 72.7374 483.205 83.9821 540.324 95.4564C596.255 106.696 649.489 121.537 705.12 133.214C760.751 144.89 793.245 122.516 838.641 108.893C898.316 90.9902 963.464 116 1018.39 130.021C1076.2 144.781 1142.79 163.564 1208.6 159.923C1291.23 155.348 1354.53 117.443 1438.27 114.174" stroke="url(#paint27_linear_257_2)" stroke-miterlimit="10"/>
<path d="M0.369507 109.326C61.5628 110.966 121.288 129.968 182.941 121.768C243.854 113.672 293.264 90.0618 352.7 79.7956C412.545 69.4912 480.519 80.2767 537.897 90.7998C594.817 101.246 649.12 115.197 704.661 127.59C730.864 133.433 750.067 133.674 775.401 126.136C795.992 120.008 813.407 111.108 833.968 104.936C861.399 96.6927 883.248 96.9223 911.977 103.05C946.498 110.425 980.131 118.903 1014 127.141C1072.79 141.398 1140.82 159.088 1206.93 155.414C1290.13 150.79 1353.96 112.633 1438.3 109.326" stroke="url(#paint28_linear_257_2)" stroke-miterlimit="10"/>
<path d="M0.389404 104.591C62.1518 106.231 121.697 126.14 184.069 117.913C243.774 110.036 291.497 86.3381 349.734 76.3343C409.27 66.1064 478.492 76.4436 536.1 86.1741C593.708 95.9045 649.02 109.134 704.381 122.253C729.965 128.316 748.669 129.174 773.783 121.674C793.695 115.726 810.311 106.947 830.173 100.956C857.454 92.723 878.964 93.5976 907.194 99.9279C941.885 107.707 976.036 116.169 1010.55 124.177C1070.07 137.986 1139.43 154.692 1205.64 151.007C1289.3 146.355 1353.56 107.969 1438.31 104.64" stroke="url(#paint29_linear_257_2)" stroke-miterlimit="10"/>
<path d="M0.409363 99.9888C62.751 101.585 121.957 122.183 185.028 113.934C243.844 106.232 290.079 82.3538 347.507 72.6452C406.963 62.5813 476.934 72.4484 534.902 81.4846C593.339 90.5864 649.13 103.263 704.262 117.105C729.326 123.391 747.82 124.714 772.745 117.214C792.117 111.392 808.064 102.667 827.377 96.7909C854.529 88.531 876.018 89.8703 903.819 96.441C938.559 104.641 973.11 113.125 1008.15 120.964C1068.07 134.373 1138.59 150.215 1204.74 146.558C1288.73 141.912 1353.3 103.307 1438.41 99.9888" stroke="url(#paint30_linear_257_2)" stroke-miterlimit="10"/>
<path d="M0.429382 95.5008C63.3402 96.9494 122.037 118.045 185.807 109.774C244.014 102.225 289.25 78.2429 345.99 68.6492C405.256 58.6344 476.145 68.2884 534.263 76.7615C593.299 85.3713 649.34 97.7038 704.212 112.294C728.867 118.854 747.46 120.439 772.255 112.89C791.228 107.112 806.676 98.3817 825.62 92.5489C852.671 84.2179 874.46 85.7922 901.931 92.6637C936.602 101.334 971.413 109.878 1006.84 117.586C1066.94 130.656 1138.28 145.788 1204.16 142.185C1288.35 137.588 1353.08 98.7753 1438.39 95.5008" stroke="url(#paint31_linear_257_2)" stroke-miterlimit="10"/>
<path d="M0.459473 91.1264C63.6898 92.4274 121.977 113.752 186.136 105.405C244.144 97.8612 289.11 73.9013 345.67 64.3622C404.876 54.3803 476.085 64.231 534.223 72.5238C593.469 80.975 649.33 93.2146 704.272 107.87C728.837 114.43 747.69 115.797 772.315 108.297C791.159 102.557 806.507 93.9034 825.35 88.1471C852.312 79.9145 874.5 81.4452 901.712 88.5134C936.233 97.4785 971.084 106.088 1006.66 113.72C1066.47 126.55 1138.74 141.512 1204.11 137.772C1288.18 132.973 1353.33 94.8163 1438.42 91.1428" stroke="url(#paint32_linear_257_2)" stroke-miterlimit="10"/>
<path d="M0.479248 86.8249C63.8494 88.0603 121.967 109.527 186.276 101.082C244.194 93.4722 289.39 69.7146 345.989 60.2356C405.196 50.3193 476.245 60.6019 534.293 68.9493C593.349 77.4443 648.97 89.662 704.292 103.624C756.657 116.836 782.611 96.517 825.739 83.8456C852.701 75.9246 875.03 77.3677 901.991 84.4633C936.363 93.5104 971.153 102.098 1006.72 109.642C1066.18 122.248 1139.38 137.281 1204.29 133.225C1288 127.988 1353.95 91.3839 1438.47 86.9069" stroke="url(#paint33_linear_257_2)" stroke-miterlimit="10"/>
<path d="M0.499329 82.5876C64.0592 83.7793 122.037 105.405 186.546 96.8881C244.463 89.2349 289.839 65.7288 346.469 56.3373C405.675 46.4975 476.515 57.1736 534.472 65.5484C593.299 74.0489 648.71 86.2119 704.352 99.4683C756.278 111.845 783.16 91.8862 826.319 79.7887C853.28 72.2121 875.808 73.6115 902.531 80.718C936.742 89.8144 971.433 98.3367 1006.99 105.749C1066.21 118.098 1140.14 132.973 1204.51 128.643C1287.8 123.045 1354.56 88.0323 1438.46 82.8445" stroke="url(#paint34_linear_257_2)" stroke-miterlimit="10"/>
<path d="M0.519287 78.4283C64.2989 79.5872 122.187 101.388 186.935 92.8327C244.783 85.1904 290.428 61.9522 347.098 52.659C406.304 42.9832 476.914 53.9273 534.762 62.3075C593.309 70.7806 648.601 82.8507 704.441 95.3746C755.998 106.925 783.799 87.4098 827.068 75.8754C854.099 68.676 876.797 70.0754 903.319 77.1765C937.341 86.2892 971.962 94.7131 1007.46 101.951C1066.53 114.005 1140.91 128.513 1204.84 123.959C1287.72 118.061 1355.25 84.693 1438.51 78.8656" stroke="url(#paint35_linear_257_2)" stroke-miterlimit="10"/>
<path d="M0.539185 74.3388C64.5884 75.4867 122.366 97.4568 187.444 88.8962C245.242 81.2977 291.167 58.3218 347.887 49.2145C407.073 39.7082 477.323 50.8982 535.151 59.2511C593.379 67.6696 648.501 79.614 704.571 91.3834C755.739 102.125 784.518 83.1235 827.986 72.2123C855.108 65.401 877.985 66.8496 904.338 73.9288C938.094 83.0878 972.732 91.2376 1008.1 98.3424C1067.12 110.063 1141.71 124.035 1205.27 119.274C1287.61 113.135 1355.97 81.4507 1438.5 75.0713" stroke="url(#paint36_linear_257_2)" stroke-miterlimit="10"/>
<path d="M0.569275 70.3269C64.9081 71.4749 122.666 93.6363 188.063 85.0866C245.812 77.5482 292.046 54.8785 348.836 45.9571C408.002 36.664 477.953 48.0289 535.671 56.3435C593.589 64.6745 648.561 76.4549 704.761 87.4591C755.549 97.4082 785.367 78.9695 829.095 68.7198C856.346 62.3294 879.393 63.86 905.596 70.9064C939.149 80.0047 973.661 88.0018 1008.95 94.8553C1068 106.209 1142.58 119.422 1205.8 114.535C1287.61 108.21 1356.75 78.2589 1438.56 71.382" stroke="url(#paint37_linear_257_2)" stroke-miterlimit="10"/>
<path d="M0.589172 66.4018C65.2575 67.5553 123.006 89.908 188.772 81.4239C246.481 73.9785 293.045 51.6367 349.854 42.9285C408.99 33.865 478.572 45.3666 536.24 53.6101C593.728 61.8099 648.68 73.4045 704.941 83.6269C755.369 92.7943 786.285 74.9843 830.313 65.4288C857.714 59.4812 880.941 61.1266 907.034 68.1621C940.357 77.1734 974.714 84.9906 1009.89 91.5643C1069.03 102.497 1143.39 114.83 1206.34 109.828C1287.58 103.378 1357.47 75.192 1438.54 67.8942" stroke="url(#paint38_linear_257_2)" stroke-miterlimit="10"/>
<path d="M0.609131 62.5532C65.6369 63.7339 123.435 86.2998 189.581 77.8595C247.249 70.5453 294.153 48.5588 351.022 40.0857C410.119 31.2846 479.321 42.8682 536.859 51.0188C593.948 59.1093 648.84 70.4414 705.12 79.8766C755.199 88.2678 787.274 71.1302 831.631 62.3072C859.202 56.8406 882.609 58.6118 908.622 65.5871C941.724 74.4916 975.938 82.1001 1011.01 88.3553C1070.34 98.8674 1144.28 110.156 1207 105.066C1287.65 98.5066 1358.25 72.1524 1438.57 64.4774" stroke="url(#paint39_linear_257_2)" stroke-miterlimit="10"/>
<path d="M0.629028 58.7919C66.0463 60.0055 123.834 82.79 190.47 74.4645C248.098 67.2596 295.371 45.6449 352.3 37.4341C411.347 28.9227 480.119 40.5446 537.578 48.5913C594.267 56.5342 649.11 67.5821 705.34 76.2192C755.08 83.8724 788.382 67.4345 833.089 59.3714C860.85 54.3695 884.436 56.332 910.389 63.1979C943.26 71.9674 977.312 79.3434 1012.24 85.2609C1071.81 95.292 1145.15 105.416 1207.69 100.267C1287.74 93.7067 1359.01 69.1619 1438.57 61.1698" stroke="url(#paint40_linear_257_2)" stroke-miterlimit="10"/>
<path d="M0.64917 55.1241C66.4759 56.3814 124.324 79.3846 191.379 71.1739C249.037 64.1384 296.68 42.8955 353.679 34.969C412.665 26.7692 480.958 38.3856 538.417 46.312C594.687 54.0855 649.489 64.8163 705.66 72.6498C755.06 79.5431 789.661 63.8706 834.737 56.6055C862.697 52.1011 886.453 54.2549 912.387 61.0881C945.019 69.7037 978.9 76.8218 1013.68 82.3693C1073.48 91.8866 1146.08 100.764 1208.48 95.5546C1287.9 88.9565 1359.81 66.325 1438.61 58.0596" stroke="url(#paint41_linear_257_2)" stroke-miterlimit="10"/>
<path d="M0.669067 51.5656C66.9052 52.8612 124.823 76.0831 192.467 68.009C250.036 61.1321 298.077 40.3046 355.137 32.6787C414.053 24.8014 481.877 36.3905 539.206 44.1585C595.066 51.746 649.829 62.1215 705.879 69.157C754.97 75.3232 790.939 60.4105 836.364 53.9818C864.524 49.9858 888.471 52.3419 914.414 59.1259C946.799 67.5691 980.499 74.4095 1015.11 79.5653C1075.3 88.5304 1146.99 96.0196 1209.3 90.8209C1288.1 84.261 1360.58 63.5319 1438.63 55.0314" stroke="url(#paint42_linear_257_2)" stroke-miterlimit="10"/>
<path d="M0.689026 48.0671C67.4044 49.4392 125.432 72.8852 193.556 64.9642C251.114 58.2786 299.575 37.8666 356.674 30.5578C415.541 23.0304 482.855 34.5539 540.104 42.1906C595.546 49.5868 650.268 59.5688 706.169 65.8061C754.97 71.2726 792.357 57.1635 838.122 51.5931C866.492 48.1218 890.617 50.7293 916.601 57.4204C948.74 65.6743 982.253 72.2187 1016.68 76.9633C1077.23 85.338 1147.93 91.3895 1210.15 86.1853C1288.34 79.6528 1361.34 60.9026 1438.65 52.2053" stroke="url(#paint43_linear_257_2)" stroke-miterlimit="10"/>
<path d="M0.708984 44.683C67.9037 46.1262 126.031 69.7963 194.724 62.0502C252.232 55.5615 301.083 35.5813 358.282 28.606C417.069 21.4339 483.864 32.8753 541.023 40.3426C596.065 47.5311 650.718 57.0921 706.439 62.5313C754.99 67.2708 793.825 54.0144 839.939 49.2749C868.509 46.3394 892.804 49.2039 918.877 55.8348C950.766 63.8834 984.085 70.1117 1018.31 74.421C1079.22 82.1616 1148.84 86.7098 1211.03 81.5275C1288.61 75.0715 1362.07 58.3002 1438.67 49.428" stroke="url(#paint44_linear_257_2)" stroke-miterlimit="10"/>
<path d="M0.728943 41.4026C68.393 42.9223 126.67 66.8166 195.892 59.2564C253.411 52.9753 302.671 33.4379 359.94 26.807C418.646 20.0121 484.913 31.3387 542.032 38.6311C596.684 45.6119 651.257 54.7137 706.798 59.3602C755.139 63.4 795.452 51.0074 841.897 47.1425C870.676 44.7427 895.141 47.8805 921.314 54.413C952.955 62.2535 986.078 68.1602 1020.08 72.0262C1081.41 79.0944 1149.84 82.0901 1212.01 76.9461C1288.9 70.5721 1362.8 55.8234 1438.69 46.8036" stroke="url(#paint45_linear_257_2)" stroke-miterlimit="10"/>
<path d="M0.748901 38.2272C68.9023 39.8289 127.329 63.92 197.121 56.5893C254.639 50.5269 304.309 31.4323 361.647 25.1622C420.274 18.7663 486.001 29.9509 543.05 37.0574C597.333 43.8195 651.806 52.4348 707.107 56.2941C755.279 59.6561 797.06 48.1435 843.804 45.1533C872.763 43.3002 897.418 46.7222 923.69 53.1728C955.085 60.7902 988.009 66.3588 1021.78 69.7637C1083.49 76.1213 1150.72 77.5371 1212.89 72.4314C1289.22 66.1667 1363.41 53.457 1438.64 44.306" stroke="url(#paint46_linear_257_2)" stroke-miterlimit="10"/>
<path d="M0.768921 35.1659C69.4216 36.8496 128.019 61.1866 198.369 54.0473C255.877 48.2036 305.986 29.5681 363.395 23.6861C421.922 17.6729 487.099 28.7318 544.139 35.6415C598.062 42.2013 652.415 50.2863 707.487 53.364C755.569 56.0535 798.778 45.4375 845.881 43.3274C875.05 42.0209 899.804 45.7436 926.327 52.1067C957.48 59.4972 990.202 64.7202 1023.73 67.6535C1164.53 80.3851 1302.5 58.9071 1438.78 41.9608" stroke="url(#paint47_linear_257_2)" stroke-miterlimit="10"/>
<path d="M0.788818 32.2021C69.9508 33.9787 128.717 58.529 199.647 51.6138C257.155 46.0051 307.694 27.8343 365.172 22.2967C423.599 16.6662 488.228 27.5884 545.147 34.2958C598.761 40.6315 652.954 48.1917 707.777 50.4713C755.848 52.4884 800.415 42.8181 847.868 41.5608C877.206 40.7955 902.171 44.8408 928.843 51.1109C959.64 58.3978 992.343 63.0443 1025.55 65.6136C1162.76 76.2351 1305.88 56.5173 1438.75 39.6858" stroke="url(#paint48_linear_257_2)" stroke-miterlimit="10"/>
<path d="M0.808838 29.3604C70.4801 31.2299 129.427 55.9934 200.935 49.3078C258.454 43.9123 309.411 26.228 366.96 21.0622C425.287 15.8307 489.356 26.6052 546.216 33.0885C599.54 39.1837 653.544 46.2082 708.116 47.7443C756.278 49.1 802.103 40.3426 849.915 39.9764C879.423 39.7523 904.548 44.1146 931.43 50.3081C962.026 57.3545 994.51 61.602 1027.43 63.7121C1090.15 67.73 1153.75 64.308 1215.96 59.3935C1290.59 53.4951 1365.33 47.0228 1438.77 37.5274" stroke="url(#paint49_linear_257_2)" stroke-miterlimit="10"/>
<path d="M0.828857 26.6319C70.4102 28.5616 129.277 53.3687 200.716 47.2572C258.004 42.3373 309.062 25.3418 366.161 20.1868C423.879 14.9772 486.66 25.3145 543.02 31.5572C597.503 37.5704 652.695 44.2888 708.466 45.1307C757.976 45.8796 806.217 37.6032 855.617 38.5708C885.435 39.1557 910.29 44.4911 937.621 50.4168C966.011 56.5721 995.988 60.0981 1026.31 61.7653C1090.83 65.3131 1154.83 60.0817 1218.59 55.1454C1292.19 49.4492 1366.44 45.0651 1438.82 35.5424" stroke="url(#paint50_linear_257_2)" stroke-miterlimit="10"/>
<path d="M0.838806 24.0244C70.8995 26.047 130.006 51.0619 201.974 45.1854C259.272 40.506 310.74 23.9588 367.928 19.181C425.527 14.3923 487.808 24.582 544.089 30.6225C598.312 36.4498 653.294 42.6489 708.775 42.6489C758.575 42.6489 807.885 35.4713 857.694 37.3026C887.552 38.3959 912.616 44.0374 940.157 49.8374C968.357 55.774 998.135 58.9282 1028.19 60.1746C1092.93 62.8587 1155.82 55.9544 1219.57 51.1548C1292.69 45.65 1366.93 43.3049 1438.8 33.6619" stroke="url(#paint51_linear_257_2)" stroke-miterlimit="10"/>
<path d="M0.858765 21.5429C71.4487 23.6585 130.675 48.8756 203.252 43.2287C260.571 38.768 312.437 22.6854 369.706 18.2794C427.184 13.8461 488.977 23.9646 545.227 29.8084C599.151 35.4225 653.923 41.064 709.115 40.2658C759.274 39.5388 809.552 33.4381 859.781 36.1222C889.679 37.7239 914.943 43.666 942.664 49.3403C970.624 55.0638 1000.26 57.8462 1030.04 58.6717C1094.95 60.4811 1156.8 51.9369 1220.53 47.2685C1293.19 41.9441 1367.32 41.6489 1438.77 31.8856" stroke="url(#paint52_linear_257_2)" stroke-miterlimit="10"/>
<path d="M0.878784 19.1867C71.958 21.3733 131.434 46.8037 204.52 41.3918C261.849 37.1443 314.115 21.4991 371.473 17.4866C428.832 13.4742 490.125 23.4561 546.226 29.0975C600.019 34.5094 654.532 39.6206 709.424 38.0189C760.023 36.543 811.16 31.5356 861.808 35.0615C891.766 37.1443 917.21 43.4089 945.19 48.952C973.17 54.4951 1002.43 56.8785 1031.93 57.294C1096.84 58.2178 1157.87 48.0719 1221.53 43.5347C1293.77 38.3852 1367.84 40.1345 1438.81 30.2291" stroke="url(#paint53_linear_257_2)" stroke-miterlimit="10"/>
<path d="M0.888672 16.9568C72.4572 19.2528 132.143 44.8362 205.748 39.6758C263.107 35.636 315.752 20.4663 373.191 16.7928C430.39 13.1357 491.303 23.052 547.304 28.5022C600.938 33.7172 655.151 38.2927 709.774 35.9039C760.871 33.668 812.768 29.7485 863.865 34.0999C893.733 36.6473 919.476 43.24 947.657 48.6573C975.317 53.9708 1004.58 56.0153 1033.75 56.0317C1098.66 56.0754 1158.92 44.377 1222.49 39.96C1294.38 34.9636 1368.28 38.7519 1438.81 28.688" stroke="url(#paint54_linear_257_2)" stroke-miterlimit="10"/>
<path d="M0.898743 14.8625C72.9466 17.235 132.812 43.0316 206.947 38.068C264.335 34.2414 317.36 19.4818 374.869 16.2019C432.008 12.9219 492.312 22.7617 548.323 28.0205C601.847 33.0279 655.79 37.0895 710.093 33.9244C761.74 30.9178 814.306 28.0861 865.872 33.2465C895.73 36.2258 921.693 43.1519 950.083 48.4435C977.614 53.5711 1006.62 55.2493 1035.53 54.8776C1100.34 54.0522 1159.97 40.8559 1223.45 36.5428C1294.93 31.6886 1368.64 37.5159 1438.84 27.2497" stroke="url(#paint55_linear_257_2)" stroke-miterlimit="10"/>
<path d="M0.918701 12.9006C73.4159 15.3551 133.491 41.3266 208.115 36.5817C265.534 32.9246 318.958 18.6405 376.496 15.6722C433.515 12.7312 493.331 22.5545 549.311 27.6166C602.736 32.4326 656.409 35.9858 710.403 32.0609C762.629 28.2671 815.843 26.5069 867.77 32.4599C897.598 35.8765 923.78 43.1306 952.42 48.3129C979.781 53.2328 1008.64 54.5885 1037.3 53.8396C1101.94 52.1613 1161.05 37.5329 1224.42 33.3127C1295.57 28.5732 1369.06 36.4232 1438.92 25.9547" stroke="url(#paint56_linear_257_2)" stroke-miterlimit="10"/>
<path d="M0.928711 11.075C73.8254 13.606 134.12 39.7634 209.223 35.2097C266.672 31.7221 320.396 17.8699 378.064 15.2295C434.983 12.6274 494.359 22.4344 550.25 27.3215C603.604 31.9954 657.009 35.0129 710.683 30.3445C763.518 25.7526 817.211 25.042 869.587 31.7658C899.355 35.5924 925.788 43.1745 954.617 48.2365C981.838 53.0142 1010.54 54.0037 1038.9 52.8994C1103.31 50.3903 1162.01 34.4116 1225.26 30.2461C1296.16 25.5941 1369.35 35.4557 1438.9 24.7358" stroke="url(#paint57_linear_257_2)" stroke-miterlimit="10"/>
<path d="M0.938599 9.39624C74.2946 11.9874 134.749 38.3197 210.272 33.9465C267.77 30.6228 321.824 17.1806 379.552 14.8628C436.381 12.5832 495.298 22.3902 551.139 27.1242C604.443 31.6451 657.588 34.1597 710.962 28.7642C764.336 23.3687 818.56 23.6858 871.345 31.1531C901.043 35.3568 927.735 43.1795 956.724 48.2196C983.685 52.9154 1012.42 53.5058 1040.44 52.0462C1104.58 48.7663 1162.96 31.4975 1226.08 27.3866C1296.67 22.7893 1369.65 34.6462 1438.9 23.6366" stroke="url(#paint58_linear_257_2)" stroke-miterlimit="10"/>
<path d="M0.998657 7.83252C74.7541 10.4783 135.338 36.9856 211.311 32.7818C268.789 29.6167 323.162 16.579 380.96 14.5618C437.66 12.5829 496.197 22.4227 551.978 27.0201C605.252 31.3933 658.147 33.4323 711.212 27.3262C765.275 21.1107 819.818 22.4063 872.982 30.6061C902.62 35.1652 929.542 43.283 958.701 48.2521C985.553 52.8276 1014.14 53.09 1041.86 51.3353C1072.11 49.4165 1101.6 45.0214 1130.64 40.1452C1161.97 34.8919 1194.22 26.878 1226.86 24.7569C1297.21 20.1814 1369.94 34.0063 1438.91 22.6687" stroke="url(#paint59_linear_257_2)" stroke-miterlimit="10"/>
<path d="M0.998657 6.46704C75.1136 9.15658 135.808 35.8333 212.219 31.7717C269.748 28.7104 324.41 16.0335 382.278 14.317C438.888 12.6169 497.006 22.5168 552.737 26.9994C606.011 31.2742 658.696 32.8322 711.452 26.0373C766.104 18.9964 821.006 21.2322 874.56 30.1426C904.068 35.0625 931.22 43.4263 960.528 48.3243C987.271 52.7905 1015.73 52.7577 1043.18 50.7023C1073.37 48.4501 1102.69 43.6723 1131.56 38.4846C1162.66 32.8978 1194.96 24.4684 1227.59 22.3309C1297.72 17.7445 1370.22 33.51 1438.92 21.7843" stroke="url(#paint60_linear_257_2)" stroke-miterlimit="10"/>
<path d="M0.998657 5.22607C75.4531 7.95934 136.307 34.7946 213.048 30.8532C270.616 27.8903 325.539 15.5961 383.456 14.1256C439.986 12.6879 497.714 22.7026 553.406 27.0704C606.69 31.2413 659.186 32.362 711.631 24.8838C766.913 17.0283 822.065 20.1443 875.998 29.738C905.397 34.9641 932.748 43.5848 962.206 48.4281C988.838 52.8014 1017.13 52.4952 1044.38 50.172C1074.5 47.6027 1103.67 42.4641 1132.38 36.9921C1163.28 31.1047 1195.62 22.3035 1228.25 20.1333C1298.15 15.4868 1370.48 33.171 1438.95 21.0244" stroke="url(#paint61_linear_257_2)" stroke-miterlimit="10"/>
<path d="M0.998657 4.1377C75.7627 6.87096 136.716 33.8921 213.787 30.0436C271.425 27.1628 326.627 15.2074 384.605 13.9775C441.075 12.7748 498.443 22.9371 554.075 27.2174C607.379 31.3119 659.725 32.017 711.851 23.8992C767.702 15.202 822.993 19.1379 877.306 29.3658C906.605 34.8924 934.136 43.7373 963.714 48.5369C990.256 52.8391 1018.45 52.2924 1045.44 49.7232C1075.52 46.8587 1104.52 41.3922 1133.11 35.6578C1163.84 29.486 1196.19 20.3842 1228.87 18.1648C1298.63 13.4199 1370.78 32.9792 1438.95 20.3515" stroke="url(#paint62_linear_257_2)" stroke-miterlimit="10"/>
<path d="M0.998657 3.20874C76.0523 5.94201 137.066 33.1326 214.436 29.3443C272.084 26.5235 327.536 14.8853 385.563 13.8466C441.974 12.8572 498.963 23.1999 554.594 27.4201C607.928 31.4653 660.174 31.7933 712.001 23.0468C768.431 13.5186 823.752 18.198 878.465 29.06C907.633 34.8545 935.324 43.9017 965.012 48.6685C991.475 52.9215 1019.52 52.1671 1046.33 49.3791C1076.36 46.2468 1105.24 40.4851 1133.71 34.5102C1164.3 28.087 1196.62 18.7501 1229.39 16.4706C1299 11.578 1371.06 32.9795 1438.96 19.7942" stroke="url(#paint63_linear_257_2)" stroke-miterlimit="10"/>
<path d="M0.998657 2.43335C75.6828 5.16662 136.497 32.3572 213.418 28.8313C274.201 26.0488 332.958 13.4812 394.291 13.7382C446.727 13.9568 499.342 23.3866 551.139 27.4428C606.171 31.7504 658.846 31.6302 712.141 22.4081C771.237 12.2075 826.608 17.5702 883.567 29.7005C909.101 35.1342 933.427 42.5468 959.15 47.6362C986.372 53.0207 1016.26 52.4959 1044.27 49.5057C1076.05 46.1165 1106.48 39.666 1136.46 33.1061C1166.68 26.4697 1198.8 17.1274 1231.38 14.9408C1300.29 10.3434 1371.95 33.0405 1438.95 19.3523" stroke="url(#paint64_linear_257_2)" stroke-miterlimit="10"/>
<path d="M0.998657 1.82031C75.8925 4.51532 136.706 31.8863 213.837 28.3549C274.641 25.567 333.667 13.2946 394.98 13.7046C447.376 14.0599 499.722 23.7521 551.488 27.8137C606.56 32.1323 659.226 31.7059 712.26 21.8825C771.956 10.8182 827.038 16.8096 884.466 29.5357C909.88 35.1662 934.276 42.6445 960.069 47.7393C987.231 53.1293 1016.99 52.4952 1044.84 49.3355C1076.6 45.733 1106.91 39.0037 1136.8 32.269C1166.98 25.4686 1199.09 16.0224 1231.75 13.7264C1300.53 8.92682 1372.26 33.324 1438.96 18.9743" stroke="url(#paint65_linear_257_2)" stroke-miterlimit="10"/>
<path d="M0.998657 1.38306C76.0423 4.03433 136.806 31.5693 214.156 27.9832C274.97 25.1625 334.126 13.1525 395.519 13.6937C447.895 14.1529 499.991 24.1567 551.738 28.2511C606.84 32.6243 659.585 31.9301 712.28 21.5163C772.555 9.6102 827.197 16.1044 885.115 29.3663C910.469 35.1663 934.925 42.721 960.738 47.876C987.88 53.2933 1017.38 52.61 1045.21 49.3027C1109.51 41.6496 1167.12 17.6897 1232.03 12.8573C1300.69 7.74611 1372.61 33.7887 1438.96 18.7175" stroke="url(#paint66_linear_257_2)" stroke-miterlimit="10"/>
<path d="M0.998657 1.10767C76.1621 3.70427 136.906 31.4032 214.346 27.7297C275.17 24.8379 334.526 13.063 395.889 13.6916C448.275 14.2383 500.141 24.5919 551.868 28.7574C606.99 33.1963 659.915 32.2997 712.31 21.3229C773.114 8.58043 827.147 15.4519 885.615 29.2494C910.759 35.1697 935.274 43.0142 961.148 47.9668C988.629 53.2202 1017.24 52.7938 1045.37 49.3389C1109.78 41.4234 1167.07 17.4417 1232.21 12.2594C1300.78 6.79287 1373.01 34.4262 1438.92 18.5569" stroke="url(#paint67_linear_257_2)" stroke-miterlimit="10"/>
<path d="M0.998657 1C76.242 3.52007 136.876 31.383 214.396 27.5729C275.22 24.5827 334.656 13.0045 396.138 13.6824C448.534 14.2618 500.201 25.0528 551.918 29.3167C607.039 33.8594 660.244 32.8153 712.33 21.2863C773.603 7.71291 826.878 14.8303 885.904 29.1527C939.828 42.2286 984.255 57.114 1045.32 49.4499C1109.9 41.3431 1166.92 17.5636 1232.29 11.9659C1300.78 6.10028 1373.39 35.226 1439 18.5257" stroke="url(#paint68_linear_257_2)" stroke-miterlimit="10"/>
</g>
<defs>
<linearGradient id="paint0_linear_257_2" x1="1.03668e+06" y1="392.67" x2="1.03668e+06" y2="318.45" gradientUnits="userSpaceOnUse">
<stop stop-color="#592CB8"/>
<stop offset="1" stop-color="#2C66B8"/>
</linearGradient>
<linearGradient id="paint1_linear_257_2" x1="1.03666e+06" y1="628.147" x2="1.03666e+06" y2="373.587" gradientUnits="userSpaceOnUse">
<stop stop-color="#592CB8"/>
<stop offset="1" stop-color="#2C66B8"/>
</linearGradient>
<linearGradient id="paint2_linear_257_2" x1="1.03668e+06" y1="913.13" x2="1.03668e+06" y2="443.02" gradientUnits="userSpaceOnUse">
<stop stop-color="#592CB8"/>
<stop offset="1" stop-color="#2C66B8"/>
</linearGradient>
<linearGradient id="paint3_linear_257_2" x1="1.03668e+06" y1="1338.43" x2="1.03668e+06" y2="550.477" gradientUnits="userSpaceOnUse">
<stop stop-color="#592CB8"/>
<stop offset="1" stop-color="#2C66B8"/>
</linearGradient>
<linearGradient id="paint4_linear_257_2" x1="1.03668e+06" y1="2044.71" x2="1.03668e+06" y2="732.623" gradientUnits="userSpaceOnUse">
<stop stop-color="#592CB8"/>
<stop offset="1" stop-color="#2C66B8"/>
</linearGradient>
<linearGradient id="paint5_linear_257_2" x1="1.03668e+06" y1="2821.49" x2="1.03668e+06" y2="933.972" gradientUnits="userSpaceOnUse">
<stop stop-color="#592CB8"/>
<stop offset="1" stop-color="#2C66B8"/>
</linearGradient>
<linearGradient id="paint6_linear_257_2" x1="1.03668e+06" y1="3766.9" x2="1.03668e+06" y2="1180.14" gradientUnits="userSpaceOnUse">
<stop stop-color="#592CB8"/>
<stop offset="1" stop-color="#2C66B8"/>
</linearGradient>
<linearGradient id="paint7_linear_257_2" x1="1.03667e+06" y1="4760.96" x2="1.03667e+06" y2="1439.42" gradientUnits="userSpaceOnUse">
<stop stop-color="#592CB8"/>
<stop offset="1" stop-color="#2C66B8"/>
</linearGradient>
<linearGradient id="paint8_linear_257_2" x1="1.03669e+06" y1="5758" x2="1.03669e+06" y2="1699.63" gradientUnits="userSpaceOnUse">
<stop stop-color="#592CB8"/>
<stop offset="1" stop-color="#2C66B8"/>
</linearGradient>
<linearGradient id="paint9_linear_257_2" x1="1.03666e+06" y1="6705.75" x2="1.03666e+06" y2="1946.82" gradientUnits="userSpaceOnUse">
<stop stop-color="#592CB8"/>
<stop offset="1" stop-color="#2C66B8"/>
</linearGradient>
<linearGradient id="paint10_linear_257_2" x1="1.03668e+06" y1="7645.91" x2="1.03668e+06" y2="2191.78" gradientUnits="userSpaceOnUse">
<stop stop-color="#592CB8"/>
<stop offset="1" stop-color="#2C66B8"/>
</linearGradient>
<linearGradient id="paint11_linear_257_2" x1="1.03668e+06" y1="8367.91" x2="1.03668e+06" y2="2379.04" gradientUnits="userSpaceOnUse">
<stop stop-color="#592CB8"/>
<stop offset="1" stop-color="#2C66B8"/>
</linearGradient>
<linearGradient id="paint12_linear_257_2" x1="1.03668e+06" y1="8902.69" x2="1.03668e+06" y2="2516.54" gradientUnits="userSpaceOnUse">
<stop stop-color="#592CB8"/>
<stop offset="1" stop-color="#2C66B8"/>
</linearGradient>
<linearGradient id="paint13_linear_257_2" x1="1.03671e+06" y1="9187.92" x2="1.03671e+06" y2="2587.64" gradientUnits="userSpaceOnUse">
<stop stop-color="#592CB8"/>
<stop offset="1" stop-color="#2C66B8"/>
</linearGradient>
<linearGradient id="paint14_linear_257_2" x1="1.03668e+06" y1="9314.23" x2="1.03668e+06" y2="2616.19" gradientUnits="userSpaceOnUse">
<stop stop-color="#592CB8"/>
<stop offset="1" stop-color="#2C66B8"/>
</linearGradient>
<linearGradient id="paint15_linear_257_2" x1="1.03666e+06" y1="9442.28" x2="1.03666e+06" y2="2645.18" gradientUnits="userSpaceOnUse">
<stop stop-color="#592CB8"/>
<stop offset="1" stop-color="#2C66B8"/>
</linearGradient>
<linearGradient id="paint16_linear_257_2" x1="1.03667e+06" y1="9514.49" x2="1.03667e+06" y2="2659.68" gradientUnits="userSpaceOnUse">
<stop stop-color="#592CB8"/>
<stop offset="1" stop-color="#2C66B8"/>
</linearGradient>
<linearGradient id="paint17_linear_257_2" x1="1.03671e+06" y1="9534.87" x2="1.03671e+06" y2="2660.67" gradientUnits="userSpaceOnUse">
<stop stop-color="#592CB8"/>
<stop offset="1" stop-color="#2C66B8"/>
</linearGradient>
<linearGradient id="paint18_linear_257_2" x1="1.03668e+06" y1="9509.85" x2="1.03668e+06" y2="2649.87" gradientUnits="userSpaceOnUse">
<stop stop-color="#592CB8"/>
<stop offset="1" stop-color="#2C66B8"/>
</linearGradient>
<linearGradient id="paint19_linear_257_2" x1="1.03668e+06" y1="9443.72" x2="1.03668e+06" y2="2628.41" gradientUnits="userSpaceOnUse">
<stop stop-color="#592CB8"/>
<stop offset="1" stop-color="#2C66B8"/>
</linearGradient>
<linearGradient id="paint20_linear_257_2" x1="1.03669e+06" y1="9292.61" x2="1.03669e+06" y2="2584.76" gradientUnits="userSpaceOnUse">
<stop stop-color="#592CB8"/>
<stop offset="1" stop-color="#2C66B8"/>
</linearGradient>
<linearGradient id="paint21_linear_257_2" x1="1.0367e+06" y1="9191.35" x2="1.0367e+06" y2="2554.32" gradientUnits="userSpaceOnUse">
<stop stop-color="#592CB8"/>
<stop offset="1" stop-color="#2C66B8"/>
</linearGradient>
<linearGradient id="paint22_linear_257_2" x1="1.03666e+06" y1="9069.1" x2="1.03666e+06" y2="2518.45" gradientUnits="userSpaceOnUse">
<stop stop-color="#592CB8"/>
<stop offset="1" stop-color="#2C66B8"/>
</linearGradient>
<linearGradient id="paint23_linear_257_2" x1="1.03668e+06" y1="8939.33" x2="1.03668e+06" y2="2480.73" gradientUnits="userSpaceOnUse">
<stop stop-color="#592CB8"/>
<stop offset="1" stop-color="#2C66B8"/>
</linearGradient>
<linearGradient id="paint24_linear_257_2" x1="1.03671e+06" y1="8802.14" x2="1.03671e+06" y2="2441.14" gradientUnits="userSpaceOnUse">
<stop stop-color="#592CB8"/>
<stop offset="1" stop-color="#2C66B8"/>
</linearGradient>
<linearGradient id="paint25_linear_257_2" x1="1.03667e+06" y1="8663.14" x2="1.03667e+06" y2="2401.14" gradientUnits="userSpaceOnUse">
<stop stop-color="#592CB8"/>
<stop offset="1" stop-color="#2C66B8"/>
</linearGradient>
<linearGradient id="paint26_linear_257_2" x1="1.03668e+06" y1="8482.16" x2="1.03668e+06" y2="2350.18" gradientUnits="userSpaceOnUse">
<stop stop-color="#592CB8"/>
<stop offset="1" stop-color="#2C66B8"/>
</linearGradient>
<linearGradient id="paint27_linear_257_2" x1="1.03666e+06" y1="8352.63" x2="1.03666e+06" y2="2312.81" gradientUnits="userSpaceOnUse">
<stop stop-color="#592CB8"/>
<stop offset="1" stop-color="#2C66B8"/>
</linearGradient>
<linearGradient id="paint28_linear_257_2" x1="1.03666e+06" y1="8237.19" x2="1.03666e+06" y2="2279.18" gradientUnits="userSpaceOnUse">
<stop stop-color="#592CB8"/>
<stop offset="1" stop-color="#2C66B8"/>
</linearGradient>
<linearGradient id="paint29_linear_257_2" x1="1.03666e+06" y1="8146.47" x2="1.03666e+06" y2="2252.11" gradientUnits="userSpaceOnUse">
<stop stop-color="#592CB8"/>
<stop offset="1" stop-color="#2C66B8"/>
</linearGradient>
<linearGradient id="paint30_linear_257_2" x1="1.03671e+06" y1="8068.21" x2="1.03671e+06" y2="2228.28" gradientUnits="userSpaceOnUse">
<stop stop-color="#592CB8"/>
<stop offset="1" stop-color="#2C66B8"/>
</linearGradient>
<linearGradient id="paint31_linear_257_2" x1="1.03668e+06" y1="8029.38" x2="1.03668e+06" y2="2214.86" gradientUnits="userSpaceOnUse">
<stop stop-color="#592CB8"/>
<stop offset="1" stop-color="#2C66B8"/>
</linearGradient>
<linearGradient id="paint32_linear_257_2" x1="1.03668e+06" y1="8010.76" x2="1.03668e+06" y2="2206.75" gradientUnits="userSpaceOnUse">
<stop stop-color="#592CB8"/>
<stop offset="1" stop-color="#2C66B8"/>
</linearGradient>
<linearGradient id="paint33_linear_257_2" x1="1.03671e+06" y1="7959.5" x2="1.03671e+06" y2="2189.99" gradientUnits="userSpaceOnUse">
<stop stop-color="#592CB8"/>
<stop offset="1" stop-color="#2C66B8"/>
</linearGradient>
<linearGradient id="paint34_linear_257_2" x1="1.03668e+06" y1="7882.46" x2="1.03668e+06" y2="2166.44" gradientUnits="userSpaceOnUse">
<stop stop-color="#592CB8"/>
<stop offset="1" stop-color="#2C66B8"/>
</linearGradient>
<linearGradient id="paint35_linear_257_2" x1="1.03671e+06" y1="7770.09" x2="1.03671e+06" y2="2133.53" gradientUnits="userSpaceOnUse">
<stop stop-color="#592CB8"/>
<stop offset="1" stop-color="#2C66B8"/>
</linearGradient>
<linearGradient id="paint36_linear_257_2" x1="1.03668e+06" y1="7635.49" x2="1.03668e+06" y2="2094.79" gradientUnits="userSpaceOnUse">
<stop stop-color="#592CB8"/>
<stop offset="1" stop-color="#2C66B8"/>
</linearGradient>
<linearGradient id="paint37_linear_257_2" x1="1.03671e+06" y1="7474.57" x2="1.03671e+06" y2="2049.08" gradientUnits="userSpaceOnUse">
<stop stop-color="#592CB8"/>
<stop offset="1" stop-color="#2C66B8"/>
</linearGradient>
<linearGradient id="paint38_linear_257_2" x1="1.03668e+06" y1="7295.17" x2="1.03668e+06" y2="1998.55" gradientUnits="userSpaceOnUse">
<stop stop-color="#592CB8"/>
<stop offset="1" stop-color="#2C66B8"/>
</linearGradient>
<linearGradient id="paint39_linear_257_2" x1="1.03668e+06" y1="7092.02" x2="1.03668e+06" y2="1941.75" gradientUnits="userSpaceOnUse">
<stop stop-color="#592CB8"/>
<stop offset="1" stop-color="#2C66B8"/>
</linearGradient>
<linearGradient id="paint40_linear_257_2" x1="1.03667e+06" y1="6866.56" x2="1.03667e+06" y2="1879.06" gradientUnits="userSpaceOnUse">
<stop stop-color="#592CB8"/>
<stop offset="1" stop-color="#2C66B8"/>
</linearGradient>
<linearGradient id="paint41_linear_257_2" x1="1.03668e+06" y1="6634.01" x2="1.03668e+06" y2="1814.6" gradientUnits="userSpaceOnUse">
<stop stop-color="#592CB8"/>
<stop offset="1" stop-color="#2C66B8"/>
</linearGradient>
<linearGradient id="paint42_linear_257_2" x1="1.03668e+06" y1="6382.68" x2="1.03668e+06" y2="1745.2" gradientUnits="userSpaceOnUse">
<stop stop-color="#592CB8"/>
<stop offset="1" stop-color="#2C66B8"/>
</linearGradient>
<linearGradient id="paint43_linear_257_2" x1="1.03668e+06" y1="6129.42" x2="1.03668e+06" y2="1675.41" gradientUnits="userSpaceOnUse">
<stop stop-color="#592CB8"/>
<stop offset="1" stop-color="#2C66B8"/>
</linearGradient>
<linearGradient id="paint44_linear_257_2" x1="1.03668e+06" y1="5862.91" x2="1.03668e+06" y2="1602.16" gradientUnits="userSpaceOnUse">
<stop stop-color="#592CB8"/>
<stop offset="1" stop-color="#2C66B8"/>
</linearGradient>
<linearGradient id="paint45_linear_257_2" x1="1.03668e+06" y1="5597.62" x2="1.03668e+06" y2="1529.35" gradientUnits="userSpaceOnUse">
<stop stop-color="#592CB8"/>
<stop offset="1" stop-color="#2C66B8"/>
</linearGradient>
<linearGradient id="paint46_linear_257_2" x1="1.03663e+06" y1="5337.91" x2="1.03663e+06" y2="1458.17" gradientUnits="userSpaceOnUse">
<stop stop-color="#592CB8"/>
<stop offset="1" stop-color="#2C66B8"/>
</linearGradient>
<linearGradient id="paint47_linear_257_2" x1="1.03672e+06" y1="5059.75" x2="1.03672e+06" y2="1382.12" gradientUnits="userSpaceOnUse">
<stop stop-color="#592CB8"/>
<stop offset="1" stop-color="#2C66B8"/>
</linearGradient>
<linearGradient id="paint48_linear_257_2" x1="1.03668e+06" y1="4888.25" x2="1.03668e+06" y2="1334.92" gradientUnits="userSpaceOnUse">
<stop stop-color="#592CB8"/>
<stop offset="1" stop-color="#2C66B8"/>
</linearGradient>
<linearGradient id="paint49_linear_257_2" x1="1.03668e+06" y1="4676.92" x2="1.03668e+06" y2="1277.09" gradientUnits="userSpaceOnUse">
<stop stop-color="#592CB8"/>
<stop offset="1" stop-color="#2C66B8"/>
</linearGradient>
<linearGradient id="paint50_linear_257_2" x1="1.03671e+06" y1="4508.93" x2="1.03671e+06" y2="1231.07" gradientUnits="userSpaceOnUse">
<stop stop-color="#592CB8"/>
<stop offset="1" stop-color="#2C66B8"/>
</linearGradient>
<linearGradient id="paint51_linear_257_2" x1="1.03668e+06" y1="4373.05" x2="1.03668e+06" y2="1193.78" gradientUnits="userSpaceOnUse">
<stop stop-color="#592CB8"/>
<stop offset="1" stop-color="#2C66B8"/>
</linearGradient>
<linearGradient id="paint52_linear_257_2" x1="1.03665e+06" y1="4260.06" x2="1.03665e+06" y2="1162.73" gradientUnits="userSpaceOnUse">
<stop stop-color="#592CB8"/>
<stop offset="1" stop-color="#2C66B8"/>
</linearGradient>
<linearGradient id="paint53_linear_257_2" x1="1.03666e+06" y1="4163.96" x2="1.03666e+06" y2="1136.32" gradientUnits="userSpaceOnUse">
<stop stop-color="#592CB8"/>
<stop offset="1" stop-color="#2C66B8"/>
</linearGradient>
<linearGradient id="paint54_linear_257_2" x1="1.03666e+06" y1="4085.78" x2="1.03666e+06" y2="1114.81" gradientUnits="userSpaceOnUse">
<stop stop-color="#592CB8"/>
<stop offset="1" stop-color="#2C66B8"/>
</linearGradient>
<linearGradient id="paint55_linear_257_2" x1="1.03667e+06" y1="4088.23" x2="1.03667e+06" y2="1114.64" gradientUnits="userSpaceOnUse">
<stop stop-color="#592CB8"/>
<stop offset="1" stop-color="#2C66B8"/>
</linearGradient>
<linearGradient id="paint56_linear_257_2" x1="1.03671e+06" y1="4194.72" x2="1.03671e+06" y2="1141.95" gradientUnits="userSpaceOnUse">
<stop stop-color="#592CB8"/>
<stop offset="1" stop-color="#2C66B8"/>
</linearGradient>
<linearGradient id="paint57_linear_257_2" x1="1.03669e+06" y1="4305.04" x2="1.03669e+06" y2="1170.41" gradientUnits="userSpaceOnUse">
<stop stop-color="#592CB8"/>
<stop offset="1" stop-color="#2C66B8"/>
</linearGradient>
<linearGradient id="paint58_linear_257_2" x1="1.03668e+06" y1="4417.31" x2="1.03668e+06" y2="1199.49" gradientUnits="userSpaceOnUse">
<stop stop-color="#592CB8"/>
<stop offset="1" stop-color="#2C66B8"/>
</linearGradient>
<linearGradient id="paint59_linear_257_2" x1="1.03665e+06" y1="4532.81" x2="1.03665e+06" y2="1229.54" gradientUnits="userSpaceOnUse">
<stop stop-color="#592CB8"/>
<stop offset="1" stop-color="#2C66B8"/>
</linearGradient>
<linearGradient id="paint60_linear_257_2" x1="1.03666e+06" y1="4639.86" x2="1.03666e+06" y2="1257.44" gradientUnits="userSpaceOnUse">
<stop stop-color="#592CB8"/>
<stop offset="1" stop-color="#2C66B8"/>
</linearGradient>
<linearGradient id="paint61_linear_257_2" x1="1.03668e+06" y1="4744.53" x2="1.03668e+06" y2="1284.79" gradientUnits="userSpaceOnUse">
<stop stop-color="#592CB8"/>
<stop offset="1" stop-color="#2C66B8"/>
</linearGradient>
<linearGradient id="paint62_linear_257_2" x1="1.03668e+06" y1="4841.06" x2="1.03668e+06" y2="1310.06" gradientUnits="userSpaceOnUse">
<stop stop-color="#592CB8"/>
<stop offset="1" stop-color="#2C66B8"/>
</linearGradient>
<linearGradient id="paint63_linear_257_2" x1="1.03668e+06" y1="4929.67" x2="1.03668e+06" y2="1333.31" gradientUnits="userSpaceOnUse">
<stop stop-color="#592CB8"/>
<stop offset="1" stop-color="#2C66B8"/>
</linearGradient>
<linearGradient id="paint64_linear_257_2" x1="1.03668e+06" y1="5014.62" x2="1.03668e+06" y2="1355.68" gradientUnits="userSpaceOnUse">
<stop stop-color="#592CB8"/>
<stop offset="1" stop-color="#2C66B8"/>
</linearGradient>
<linearGradient id="paint65_linear_257_2" x1="1.03668e+06" y1="5078.55" x2="1.03668e+06" y2="1372.49" gradientUnits="userSpaceOnUse">
<stop stop-color="#592CB8"/>
<stop offset="1" stop-color="#2C66B8"/>
</linearGradient>
<linearGradient id="paint66_linear_257_2" x1="1.03668e+06" y1="5134.09" x2="1.03668e+06" y2="1387.17" gradientUnits="userSpaceOnUse">
<stop stop-color="#592CB8"/>
<stop offset="1" stop-color="#2C66B8"/>
</linearGradient>
<linearGradient id="paint67_linear_257_2" x1="1.03666e+06" y1="5168.03" x2="1.03666e+06" y2="1396.13" gradientUnits="userSpaceOnUse">
<stop stop-color="#592CB8"/>
<stop offset="1" stop-color="#2C66B8"/>
</linearGradient>
<linearGradient id="paint68_linear_257_2" x1="1.03671e+06" y1="5139.75" x2="1.03671e+06" y2="1388.42" gradientUnits="userSpaceOnUse">
<stop stop-color="#592CB8"/>
<stop offset="1" stop-color="#2C66B8"/>
</linearGradient>
</defs>
</svg>
